G04 EAGLE Gerber RS-274X export*
G75*
%MOMM*%
%FSLAX34Y34*%
%LPD*%
%INSoldermask Bottom*%
%IPPOS*%
%AMOC8*
5,1,8,0,0,1.08239X$1,22.5*%
G01*
%ADD10C,0.853200*%
%ADD11C,0.838200*%
%ADD12C,3.505200*%
%ADD13C,2.082800*%
%ADD14C,1.203200*%
%ADD15C,6.203200*%
%ADD16C,2.453200*%
%ADD17C,3.454400*%
%ADD18C,1.303200*%
%ADD19C,1.803200*%
%ADD20R,0.838200X1.473200*%
%ADD21C,1.473200*%


D10*
X49050Y130500D03*
X49050Y72700D03*
D11*
X7620Y7620D03*
X665480Y577850D03*
D12*
X647700Y558800D03*
X25400Y558800D03*
X647700Y25400D03*
X25400Y25400D03*
D13*
X93980Y12700D03*
X119380Y12700D03*
D14*
X158750Y190500D03*
X158750Y203200D03*
X158750Y215900D03*
X158750Y228600D03*
X158750Y177800D03*
X146050Y190500D03*
X146050Y203200D03*
X146050Y215900D03*
X146050Y228600D03*
X146050Y177800D03*
D13*
X190500Y571500D03*
X165100Y571500D03*
X139700Y571500D03*
X114300Y571500D03*
X88900Y571500D03*
X406400Y12700D03*
X381000Y12700D03*
X355600Y12700D03*
X330200Y12700D03*
X304800Y12700D03*
X279400Y12700D03*
X431800Y12700D03*
X457200Y12700D03*
X482600Y12700D03*
X508000Y12700D03*
D15*
X442000Y163000D03*
D16*
X584200Y494500D03*
X584200Y444500D03*
X584200Y394500D03*
D13*
X533400Y107950D03*
X558800Y120650D03*
X533400Y133350D03*
X558800Y146050D03*
X533400Y158750D03*
X558800Y171450D03*
D17*
X622300Y88900D03*
X622300Y190500D03*
D13*
X533400Y260350D03*
X558800Y273050D03*
X533400Y285750D03*
X558800Y298450D03*
X533400Y311150D03*
X558800Y323850D03*
D17*
X622300Y241300D03*
X622300Y342900D03*
D18*
X241300Y103200D03*
D19*
X241300Y303200D03*
D13*
X215900Y571500D03*
X241300Y571500D03*
X215900Y546100D03*
X241300Y546100D03*
D20*
X105664Y139700D03*
X97536Y139700D03*
D21*
X165100Y254000D03*
D10*
X793270Y130500D03*
X793270Y72700D03*
D11*
X751840Y7620D03*
X1409700Y577850D03*
D12*
X1391920Y558800D03*
X769620Y558800D03*
X1391920Y25400D03*
X769620Y25400D03*
D13*
X838200Y12700D03*
X863600Y12700D03*
D14*
X902970Y190500D03*
X902970Y203200D03*
X902970Y215900D03*
X902970Y228600D03*
X902970Y177800D03*
X890270Y190500D03*
X890270Y203200D03*
X890270Y215900D03*
X890270Y228600D03*
X890270Y177800D03*
D13*
X934720Y571500D03*
X909320Y571500D03*
X883920Y571500D03*
X858520Y571500D03*
X833120Y571500D03*
X1150620Y12700D03*
X1125220Y12700D03*
X1099820Y12700D03*
X1074420Y12700D03*
X1049020Y12700D03*
X1023620Y12700D03*
X1176020Y12700D03*
X1201420Y12700D03*
X1226820Y12700D03*
X1252220Y12700D03*
D15*
X1186220Y163000D03*
D16*
X1328420Y494500D03*
X1328420Y444500D03*
X1328420Y394500D03*
D13*
X1277620Y107950D03*
X1303020Y120650D03*
X1277620Y133350D03*
X1303020Y146050D03*
X1277620Y158750D03*
X1303020Y171450D03*
D17*
X1366520Y88900D03*
X1366520Y190500D03*
D13*
X1277620Y260350D03*
X1303020Y273050D03*
X1277620Y285750D03*
X1303020Y298450D03*
X1277620Y311150D03*
X1303020Y323850D03*
D17*
X1366520Y241300D03*
X1366520Y342900D03*
D18*
X985520Y103200D03*
D19*
X985520Y303200D03*
D13*
X960120Y571500D03*
X985520Y571500D03*
X960120Y546100D03*
X985520Y546100D03*
D20*
X849884Y139700D03*
X841756Y139700D03*
D21*
X909320Y254000D03*
D10*
X49050Y719780D03*
X49050Y661980D03*
D11*
X7620Y596900D03*
X665480Y1167130D03*
D12*
X647700Y1148080D03*
X25400Y1148080D03*
X647700Y614680D03*
X25400Y614680D03*
D13*
X93980Y601980D03*
X119380Y601980D03*
D14*
X158750Y779780D03*
X158750Y792480D03*
X158750Y805180D03*
X158750Y817880D03*
X158750Y767080D03*
X146050Y779780D03*
X146050Y792480D03*
X146050Y805180D03*
X146050Y817880D03*
X146050Y767080D03*
D13*
X190500Y1160780D03*
X165100Y1160780D03*
X139700Y1160780D03*
X114300Y1160780D03*
X88900Y1160780D03*
X406400Y601980D03*
X381000Y601980D03*
X355600Y601980D03*
X330200Y601980D03*
X304800Y601980D03*
X279400Y601980D03*
X431800Y601980D03*
X457200Y601980D03*
X482600Y601980D03*
X508000Y601980D03*
D15*
X442000Y752280D03*
D16*
X584200Y1083780D03*
X584200Y1033780D03*
X584200Y983780D03*
D13*
X533400Y697230D03*
X558800Y709930D03*
X533400Y722630D03*
X558800Y735330D03*
X533400Y748030D03*
X558800Y760730D03*
D17*
X622300Y678180D03*
X622300Y779780D03*
D13*
X533400Y849630D03*
X558800Y862330D03*
X533400Y875030D03*
X558800Y887730D03*
X533400Y900430D03*
X558800Y913130D03*
D17*
X622300Y830580D03*
X622300Y932180D03*
D18*
X241300Y692480D03*
D19*
X241300Y892480D03*
D13*
X215900Y1160780D03*
X241300Y1160780D03*
X215900Y1135380D03*
X241300Y1135380D03*
D20*
X105664Y728980D03*
X97536Y728980D03*
D21*
X165100Y843280D03*
D10*
X793270Y719780D03*
X793270Y661980D03*
D11*
X751840Y596900D03*
X1409700Y1167130D03*
D12*
X1391920Y1148080D03*
X769620Y1148080D03*
X1391920Y614680D03*
X769620Y614680D03*
D13*
X838200Y601980D03*
X863600Y601980D03*
D14*
X902970Y779780D03*
X902970Y792480D03*
X902970Y805180D03*
X902970Y817880D03*
X902970Y767080D03*
X890270Y779780D03*
X890270Y792480D03*
X890270Y805180D03*
X890270Y817880D03*
X890270Y767080D03*
D13*
X934720Y1160780D03*
X909320Y1160780D03*
X883920Y1160780D03*
X858520Y1160780D03*
X833120Y1160780D03*
X1150620Y601980D03*
X1125220Y601980D03*
X1099820Y601980D03*
X1074420Y601980D03*
X1049020Y601980D03*
X1023620Y601980D03*
X1176020Y601980D03*
X1201420Y601980D03*
X1226820Y601980D03*
X1252220Y601980D03*
D15*
X1186220Y752280D03*
D16*
X1328420Y1083780D03*
X1328420Y1033780D03*
X1328420Y983780D03*
D13*
X1277620Y697230D03*
X1303020Y709930D03*
X1277620Y722630D03*
X1303020Y735330D03*
X1277620Y748030D03*
X1303020Y760730D03*
D17*
X1366520Y678180D03*
X1366520Y779780D03*
D13*
X1277620Y849630D03*
X1303020Y862330D03*
X1277620Y875030D03*
X1303020Y887730D03*
X1277620Y900430D03*
X1303020Y913130D03*
D17*
X1366520Y830580D03*
X1366520Y932180D03*
D18*
X985520Y692480D03*
D19*
X985520Y892480D03*
D13*
X960120Y1160780D03*
X985520Y1160780D03*
X960120Y1135380D03*
X985520Y1135380D03*
D20*
X849884Y728980D03*
X841756Y728980D03*
D21*
X909320Y843280D03*
D14*
X134620Y1194435D03*
X1480185Y1194435D03*
M02*
