G04 EAGLE Gerber RS-274X export*
G75*
%MOMM*%
%FSLAX34Y34*%
%LPD*%
%INSoldermask Top*%
%IPPOS*%
%AMOC8*
5,1,8,0,0,1.08239X$1,22.5*%
G01*
%ADD10R,1.203200X0.503200*%
%ADD11R,1.203200X0.803200*%
%ADD12C,0.853200*%
%ADD13R,1.203200X1.303200*%
%ADD14R,0.503200X0.853200*%
%ADD15R,2.553200X1.803200*%
%ADD16R,1.303200X1.203200*%
%ADD17C,0.838200*%
%ADD18C,3.505200*%
%ADD19R,1.700000X4.200000*%
%ADD20R,1.033200X0.833200*%
%ADD21R,1.403200X2.203200*%
%ADD22R,0.803200X1.553200*%
%ADD23R,1.473200X0.863600*%
%ADD24R,0.965200X1.727200*%
%ADD25R,0.838200X1.473200*%
%ADD26R,1.203200X3.003200*%
%ADD27R,1.603200X1.803200*%
%ADD28C,2.082800*%
%ADD29C,1.203200*%
%ADD30R,1.603200X2.003200*%
%ADD31R,2.103200X1.603200*%
%ADD32R,1.703200X1.003200*%
%ADD33C,6.203200*%
%ADD34R,0.833200X1.033200*%
%ADD35R,0.703200X0.553200*%
%ADD36R,1.103200X0.553200*%
%ADD37R,1.203200X0.553200*%
%ADD38R,0.863600X1.473200*%
%ADD39C,0.505344*%
%ADD40C,2.453200*%
%ADD41C,3.454400*%
%ADD42R,2.903200X2.903200*%
%ADD43C,0.350000*%
%ADD44R,1.503200X3.403600*%
%ADD45C,1.303200*%
%ADD46C,1.803200*%
%ADD47R,1.753200X0.503200*%
%ADD48R,2.953200X1.403200*%
%ADD49C,1.270000*%
%ADD50C,1.703200*%

G36*
X806326Y833137D02*
X806326Y833137D01*
X806353Y833133D01*
X806394Y833151D01*
X806436Y833160D01*
X806472Y833186D01*
X806481Y833190D01*
X806485Y833195D01*
X806496Y833204D01*
X830496Y857204D01*
X830517Y857242D01*
X830546Y857275D01*
X830550Y857302D01*
X830563Y857326D01*
X830560Y857370D01*
X830567Y857413D01*
X830556Y857439D01*
X830554Y857466D01*
X830528Y857501D01*
X830510Y857541D01*
X830487Y857556D01*
X830471Y857578D01*
X830430Y857594D01*
X830394Y857618D01*
X830350Y857625D01*
X830341Y857628D01*
X830334Y857627D01*
X830320Y857629D01*
X806320Y857629D01*
X806304Y857624D01*
X806287Y857627D01*
X806237Y857605D01*
X806186Y857590D01*
X806175Y857577D01*
X806159Y857570D01*
X806129Y857525D01*
X806094Y857485D01*
X806091Y857468D01*
X806082Y857454D01*
X806071Y857380D01*
X806071Y833380D01*
X806083Y833338D01*
X806086Y833294D01*
X806102Y833272D01*
X806110Y833246D01*
X806143Y833217D01*
X806169Y833182D01*
X806195Y833172D01*
X806215Y833154D01*
X806259Y833147D01*
X806299Y833132D01*
X806326Y833137D01*
G37*
G36*
X62106Y833137D02*
X62106Y833137D01*
X62133Y833133D01*
X62174Y833151D01*
X62216Y833160D01*
X62252Y833186D01*
X62261Y833190D01*
X62265Y833195D01*
X62276Y833204D01*
X86276Y857204D01*
X86297Y857242D01*
X86326Y857275D01*
X86330Y857302D01*
X86343Y857326D01*
X86340Y857370D01*
X86347Y857413D01*
X86336Y857439D01*
X86334Y857466D01*
X86308Y857501D01*
X86290Y857541D01*
X86267Y857556D01*
X86251Y857578D01*
X86210Y857594D01*
X86174Y857618D01*
X86130Y857625D01*
X86121Y857628D01*
X86114Y857627D01*
X86100Y857629D01*
X62100Y857629D01*
X62084Y857624D01*
X62067Y857627D01*
X62017Y857605D01*
X61966Y857590D01*
X61955Y857577D01*
X61939Y857570D01*
X61909Y857525D01*
X61874Y857485D01*
X61871Y857468D01*
X61862Y857454D01*
X61851Y857380D01*
X61851Y833380D01*
X61863Y833338D01*
X61866Y833294D01*
X61882Y833272D01*
X61890Y833246D01*
X61923Y833217D01*
X61949Y833182D01*
X61975Y833172D01*
X61995Y833154D01*
X62039Y833147D01*
X62079Y833132D01*
X62106Y833137D01*
G37*
G36*
X806326Y243857D02*
X806326Y243857D01*
X806353Y243853D01*
X806394Y243871D01*
X806436Y243880D01*
X806472Y243906D01*
X806481Y243910D01*
X806485Y243915D01*
X806496Y243924D01*
X830496Y267924D01*
X830517Y267962D01*
X830546Y267995D01*
X830550Y268022D01*
X830563Y268046D01*
X830560Y268090D01*
X830567Y268133D01*
X830556Y268159D01*
X830554Y268186D01*
X830528Y268221D01*
X830510Y268261D01*
X830487Y268276D01*
X830471Y268298D01*
X830430Y268314D01*
X830394Y268338D01*
X830350Y268345D01*
X830341Y268348D01*
X830334Y268347D01*
X830320Y268349D01*
X806320Y268349D01*
X806304Y268344D01*
X806287Y268347D01*
X806237Y268325D01*
X806186Y268310D01*
X806175Y268297D01*
X806159Y268290D01*
X806129Y268245D01*
X806094Y268205D01*
X806091Y268188D01*
X806082Y268174D01*
X806071Y268100D01*
X806071Y244100D01*
X806083Y244058D01*
X806086Y244014D01*
X806102Y243992D01*
X806110Y243966D01*
X806143Y243937D01*
X806169Y243902D01*
X806195Y243892D01*
X806215Y243874D01*
X806259Y243867D01*
X806299Y243852D01*
X806326Y243857D01*
G37*
G36*
X62106Y243857D02*
X62106Y243857D01*
X62133Y243853D01*
X62174Y243871D01*
X62216Y243880D01*
X62252Y243906D01*
X62261Y243910D01*
X62265Y243915D01*
X62276Y243924D01*
X86276Y267924D01*
X86297Y267962D01*
X86326Y267995D01*
X86330Y268022D01*
X86343Y268046D01*
X86340Y268090D01*
X86347Y268133D01*
X86336Y268159D01*
X86334Y268186D01*
X86308Y268221D01*
X86290Y268261D01*
X86267Y268276D01*
X86251Y268298D01*
X86210Y268314D01*
X86174Y268338D01*
X86130Y268345D01*
X86121Y268348D01*
X86114Y268347D01*
X86100Y268349D01*
X62100Y268349D01*
X62084Y268344D01*
X62067Y268347D01*
X62017Y268325D01*
X61966Y268310D01*
X61955Y268297D01*
X61939Y268290D01*
X61909Y268245D01*
X61874Y268205D01*
X61871Y268188D01*
X61862Y268174D01*
X61851Y268100D01*
X61851Y244100D01*
X61863Y244058D01*
X61866Y244014D01*
X61882Y243992D01*
X61890Y243966D01*
X61923Y243937D01*
X61949Y243902D01*
X61975Y243892D01*
X61995Y243874D01*
X62039Y243867D01*
X62079Y243852D01*
X62106Y243857D01*
G37*
G36*
X60304Y728034D02*
X60304Y728034D01*
X60307Y728031D01*
X61429Y728186D01*
X61434Y728191D01*
X61438Y728188D01*
X62509Y728559D01*
X62513Y728565D01*
X62518Y728563D01*
X63495Y729136D01*
X63498Y729142D01*
X63503Y729141D01*
X64350Y729894D01*
X64352Y729901D01*
X64357Y729901D01*
X65041Y730804D01*
X65041Y730811D01*
X65046Y730812D01*
X65541Y731831D01*
X65539Y731838D01*
X65544Y731840D01*
X65831Y732937D01*
X65829Y732941D01*
X65831Y732942D01*
X65829Y732944D01*
X65832Y732946D01*
X65899Y734077D01*
X65897Y734081D01*
X65899Y734083D01*
X65832Y735214D01*
X65827Y735219D01*
X65831Y735223D01*
X65544Y736320D01*
X65538Y736324D01*
X65541Y736329D01*
X65046Y737348D01*
X65040Y737351D01*
X65041Y737356D01*
X64357Y738259D01*
X64350Y738261D01*
X64350Y738266D01*
X63503Y739019D01*
X63496Y739019D01*
X63495Y739024D01*
X62518Y739597D01*
X62511Y739596D01*
X62509Y739601D01*
X61438Y739972D01*
X61432Y739969D01*
X61429Y739974D01*
X60307Y740129D01*
X60302Y740126D01*
X60300Y740129D01*
X48300Y740129D01*
X48295Y740126D01*
X48292Y740129D01*
X47025Y739924D01*
X47019Y739918D01*
X47015Y739921D01*
X45825Y739439D01*
X45821Y739432D01*
X45815Y739434D01*
X44762Y738700D01*
X44760Y738692D01*
X44754Y738693D01*
X43891Y737743D01*
X43890Y737734D01*
X43885Y737734D01*
X43255Y736615D01*
X43256Y736607D01*
X43250Y736605D01*
X42885Y735375D01*
X42888Y735367D01*
X42883Y735364D01*
X42801Y734083D01*
X42804Y734079D01*
X42801Y734077D01*
X42883Y732796D01*
X42889Y732790D01*
X42885Y732785D01*
X43250Y731555D01*
X43257Y731550D01*
X43255Y731545D01*
X43885Y730426D01*
X43892Y730423D01*
X43891Y730417D01*
X44754Y729467D01*
X44762Y729466D01*
X44762Y729460D01*
X45815Y728726D01*
X45823Y728726D01*
X45825Y728721D01*
X47015Y728239D01*
X47022Y728241D01*
X47025Y728236D01*
X48292Y728031D01*
X48297Y728034D01*
X48300Y728031D01*
X60300Y728031D01*
X60304Y728034D01*
G37*
G36*
X804524Y641634D02*
X804524Y641634D01*
X804527Y641631D01*
X805649Y641786D01*
X805654Y641791D01*
X805658Y641788D01*
X806729Y642159D01*
X806733Y642165D01*
X806738Y642163D01*
X807715Y642736D01*
X807718Y642742D01*
X807723Y642741D01*
X808570Y643494D01*
X808572Y643501D01*
X808577Y643501D01*
X809261Y644404D01*
X809261Y644411D01*
X809266Y644412D01*
X809761Y645431D01*
X809759Y645438D01*
X809764Y645440D01*
X810051Y646537D01*
X810049Y646541D01*
X810051Y646542D01*
X810049Y646544D01*
X810052Y646546D01*
X810119Y647677D01*
X810117Y647681D01*
X810119Y647683D01*
X810052Y648814D01*
X810047Y648819D01*
X810051Y648823D01*
X809764Y649920D01*
X809758Y649924D01*
X809761Y649929D01*
X809266Y650948D01*
X809260Y650951D01*
X809261Y650956D01*
X808577Y651859D01*
X808570Y651861D01*
X808570Y651866D01*
X807723Y652619D01*
X807716Y652619D01*
X807715Y652624D01*
X806738Y653197D01*
X806731Y653196D01*
X806729Y653201D01*
X805658Y653572D01*
X805652Y653569D01*
X805649Y653574D01*
X804527Y653729D01*
X804522Y653726D01*
X804520Y653729D01*
X792520Y653729D01*
X792515Y653726D01*
X792512Y653729D01*
X791245Y653524D01*
X791239Y653518D01*
X791235Y653521D01*
X790045Y653039D01*
X790041Y653032D01*
X790035Y653034D01*
X788982Y652300D01*
X788980Y652292D01*
X788974Y652293D01*
X788111Y651343D01*
X788110Y651334D01*
X788105Y651334D01*
X787475Y650215D01*
X787476Y650207D01*
X787470Y650205D01*
X787105Y648975D01*
X787108Y648967D01*
X787103Y648964D01*
X787021Y647683D01*
X787024Y647679D01*
X787021Y647677D01*
X787103Y646396D01*
X787109Y646390D01*
X787105Y646385D01*
X787470Y645155D01*
X787477Y645150D01*
X787475Y645145D01*
X788105Y644026D01*
X788112Y644023D01*
X788111Y644017D01*
X788974Y643067D01*
X788982Y643066D01*
X788982Y643060D01*
X790035Y642326D01*
X790043Y642326D01*
X790045Y642321D01*
X791235Y641839D01*
X791242Y641841D01*
X791245Y641836D01*
X792512Y641631D01*
X792517Y641634D01*
X792520Y641631D01*
X804520Y641631D01*
X804524Y641634D01*
G37*
G36*
X804524Y728034D02*
X804524Y728034D01*
X804527Y728031D01*
X805649Y728186D01*
X805654Y728191D01*
X805658Y728188D01*
X806729Y728559D01*
X806733Y728565D01*
X806738Y728563D01*
X807715Y729136D01*
X807718Y729142D01*
X807723Y729141D01*
X808570Y729894D01*
X808572Y729901D01*
X808577Y729901D01*
X809261Y730804D01*
X809261Y730811D01*
X809266Y730812D01*
X809761Y731831D01*
X809759Y731838D01*
X809764Y731840D01*
X810051Y732937D01*
X810049Y732941D01*
X810051Y732942D01*
X810049Y732944D01*
X810052Y732946D01*
X810119Y734077D01*
X810117Y734081D01*
X810119Y734083D01*
X810052Y735214D01*
X810047Y735219D01*
X810051Y735223D01*
X809764Y736320D01*
X809758Y736324D01*
X809761Y736329D01*
X809266Y737348D01*
X809260Y737351D01*
X809261Y737356D01*
X808577Y738259D01*
X808570Y738261D01*
X808570Y738266D01*
X807723Y739019D01*
X807716Y739019D01*
X807715Y739024D01*
X806738Y739597D01*
X806731Y739596D01*
X806729Y739601D01*
X805658Y739972D01*
X805652Y739969D01*
X805649Y739974D01*
X804527Y740129D01*
X804522Y740126D01*
X804520Y740129D01*
X792520Y740129D01*
X792515Y740126D01*
X792512Y740129D01*
X791245Y739924D01*
X791239Y739918D01*
X791235Y739921D01*
X790045Y739439D01*
X790041Y739432D01*
X790035Y739434D01*
X788982Y738700D01*
X788980Y738692D01*
X788974Y738693D01*
X788111Y737743D01*
X788110Y737734D01*
X788105Y737734D01*
X787475Y736615D01*
X787476Y736607D01*
X787470Y736605D01*
X787105Y735375D01*
X787108Y735367D01*
X787103Y735364D01*
X787021Y734083D01*
X787024Y734079D01*
X787021Y734077D01*
X787103Y732796D01*
X787109Y732790D01*
X787105Y732785D01*
X787470Y731555D01*
X787477Y731550D01*
X787475Y731545D01*
X788105Y730426D01*
X788112Y730423D01*
X788111Y730417D01*
X788974Y729467D01*
X788982Y729466D01*
X788982Y729460D01*
X790035Y728726D01*
X790043Y728726D01*
X790045Y728721D01*
X791235Y728239D01*
X791242Y728241D01*
X791245Y728236D01*
X792512Y728031D01*
X792517Y728034D01*
X792520Y728031D01*
X804520Y728031D01*
X804524Y728034D01*
G37*
G36*
X60304Y641634D02*
X60304Y641634D01*
X60307Y641631D01*
X61429Y641786D01*
X61434Y641791D01*
X61438Y641788D01*
X62509Y642159D01*
X62513Y642165D01*
X62518Y642163D01*
X63495Y642736D01*
X63498Y642742D01*
X63503Y642741D01*
X64350Y643494D01*
X64352Y643501D01*
X64357Y643501D01*
X65041Y644404D01*
X65041Y644411D01*
X65046Y644412D01*
X65541Y645431D01*
X65539Y645438D01*
X65544Y645440D01*
X65831Y646537D01*
X65829Y646541D01*
X65831Y646542D01*
X65829Y646544D01*
X65832Y646546D01*
X65899Y647677D01*
X65897Y647681D01*
X65899Y647683D01*
X65832Y648814D01*
X65827Y648819D01*
X65831Y648823D01*
X65544Y649920D01*
X65538Y649924D01*
X65541Y649929D01*
X65046Y650948D01*
X65040Y650951D01*
X65041Y650956D01*
X64357Y651859D01*
X64350Y651861D01*
X64350Y651866D01*
X63503Y652619D01*
X63496Y652619D01*
X63495Y652624D01*
X62518Y653197D01*
X62511Y653196D01*
X62509Y653201D01*
X61438Y653572D01*
X61432Y653569D01*
X61429Y653574D01*
X60307Y653729D01*
X60302Y653726D01*
X60300Y653729D01*
X48300Y653729D01*
X48295Y653726D01*
X48292Y653729D01*
X47025Y653524D01*
X47019Y653518D01*
X47015Y653521D01*
X45825Y653039D01*
X45821Y653032D01*
X45815Y653034D01*
X44762Y652300D01*
X44760Y652292D01*
X44754Y652293D01*
X43891Y651343D01*
X43890Y651334D01*
X43885Y651334D01*
X43255Y650215D01*
X43256Y650207D01*
X43250Y650205D01*
X42885Y648975D01*
X42888Y648967D01*
X42883Y648964D01*
X42801Y647683D01*
X42804Y647679D01*
X42801Y647677D01*
X42883Y646396D01*
X42889Y646390D01*
X42885Y646385D01*
X43250Y645155D01*
X43257Y645150D01*
X43255Y645145D01*
X43885Y644026D01*
X43892Y644023D01*
X43891Y644017D01*
X44754Y643067D01*
X44762Y643066D01*
X44762Y643060D01*
X45815Y642326D01*
X45823Y642326D01*
X45825Y642321D01*
X47015Y641839D01*
X47022Y641841D01*
X47025Y641836D01*
X48292Y641631D01*
X48297Y641634D01*
X48300Y641631D01*
X60300Y641631D01*
X60304Y641634D01*
G37*
G36*
X804524Y138754D02*
X804524Y138754D01*
X804527Y138751D01*
X805649Y138906D01*
X805654Y138911D01*
X805658Y138908D01*
X806729Y139279D01*
X806733Y139285D01*
X806738Y139283D01*
X807715Y139856D01*
X807718Y139862D01*
X807723Y139861D01*
X808570Y140614D01*
X808572Y140621D01*
X808577Y140621D01*
X809261Y141524D01*
X809261Y141531D01*
X809266Y141532D01*
X809761Y142551D01*
X809759Y142558D01*
X809764Y142560D01*
X810051Y143657D01*
X810049Y143661D01*
X810051Y143662D01*
X810049Y143664D01*
X810052Y143666D01*
X810119Y144797D01*
X810117Y144801D01*
X810119Y144803D01*
X810052Y145934D01*
X810047Y145939D01*
X810051Y145943D01*
X809764Y147040D01*
X809758Y147044D01*
X809761Y147049D01*
X809266Y148068D01*
X809260Y148071D01*
X809261Y148076D01*
X808577Y148979D01*
X808570Y148981D01*
X808570Y148986D01*
X807723Y149739D01*
X807716Y149739D01*
X807715Y149744D01*
X806738Y150317D01*
X806731Y150316D01*
X806729Y150321D01*
X805658Y150692D01*
X805652Y150689D01*
X805649Y150694D01*
X804527Y150849D01*
X804522Y150846D01*
X804520Y150849D01*
X792520Y150849D01*
X792515Y150846D01*
X792512Y150849D01*
X791245Y150644D01*
X791239Y150638D01*
X791235Y150641D01*
X790045Y150159D01*
X790041Y150152D01*
X790035Y150154D01*
X788982Y149420D01*
X788980Y149412D01*
X788974Y149413D01*
X788111Y148463D01*
X788110Y148454D01*
X788105Y148454D01*
X787475Y147335D01*
X787476Y147327D01*
X787470Y147325D01*
X787105Y146095D01*
X787108Y146087D01*
X787103Y146084D01*
X787021Y144803D01*
X787024Y144799D01*
X787021Y144797D01*
X787103Y143516D01*
X787109Y143510D01*
X787105Y143505D01*
X787470Y142275D01*
X787477Y142270D01*
X787475Y142265D01*
X788105Y141146D01*
X788112Y141143D01*
X788111Y141137D01*
X788974Y140187D01*
X788982Y140186D01*
X788982Y140180D01*
X790035Y139446D01*
X790043Y139446D01*
X790045Y139441D01*
X791235Y138959D01*
X791242Y138961D01*
X791245Y138956D01*
X792512Y138751D01*
X792517Y138754D01*
X792520Y138751D01*
X804520Y138751D01*
X804524Y138754D01*
G37*
G36*
X60304Y138754D02*
X60304Y138754D01*
X60307Y138751D01*
X61429Y138906D01*
X61434Y138911D01*
X61438Y138908D01*
X62509Y139279D01*
X62513Y139285D01*
X62518Y139283D01*
X63495Y139856D01*
X63498Y139862D01*
X63503Y139861D01*
X64350Y140614D01*
X64352Y140621D01*
X64357Y140621D01*
X65041Y141524D01*
X65041Y141531D01*
X65046Y141532D01*
X65541Y142551D01*
X65539Y142558D01*
X65544Y142560D01*
X65831Y143657D01*
X65829Y143661D01*
X65831Y143662D01*
X65829Y143664D01*
X65832Y143666D01*
X65899Y144797D01*
X65897Y144801D01*
X65899Y144803D01*
X65832Y145934D01*
X65827Y145939D01*
X65831Y145943D01*
X65544Y147040D01*
X65538Y147044D01*
X65541Y147049D01*
X65046Y148068D01*
X65040Y148071D01*
X65041Y148076D01*
X64357Y148979D01*
X64350Y148981D01*
X64350Y148986D01*
X63503Y149739D01*
X63496Y149739D01*
X63495Y149744D01*
X62518Y150317D01*
X62511Y150316D01*
X62509Y150321D01*
X61438Y150692D01*
X61432Y150689D01*
X61429Y150694D01*
X60307Y150849D01*
X60302Y150846D01*
X60300Y150849D01*
X48300Y150849D01*
X48295Y150846D01*
X48292Y150849D01*
X47025Y150644D01*
X47019Y150638D01*
X47015Y150641D01*
X45825Y150159D01*
X45821Y150152D01*
X45815Y150154D01*
X44762Y149420D01*
X44760Y149412D01*
X44754Y149413D01*
X43891Y148463D01*
X43890Y148454D01*
X43885Y148454D01*
X43255Y147335D01*
X43256Y147327D01*
X43250Y147325D01*
X42885Y146095D01*
X42888Y146087D01*
X42883Y146084D01*
X42801Y144803D01*
X42804Y144799D01*
X42801Y144797D01*
X42883Y143516D01*
X42889Y143510D01*
X42885Y143505D01*
X43250Y142275D01*
X43257Y142270D01*
X43255Y142265D01*
X43885Y141146D01*
X43892Y141143D01*
X43891Y141137D01*
X44754Y140187D01*
X44762Y140186D01*
X44762Y140180D01*
X45815Y139446D01*
X45823Y139446D01*
X45825Y139441D01*
X47015Y138959D01*
X47022Y138961D01*
X47025Y138956D01*
X48292Y138751D01*
X48297Y138754D01*
X48300Y138751D01*
X60300Y138751D01*
X60304Y138754D01*
G37*
G36*
X60304Y52354D02*
X60304Y52354D01*
X60307Y52351D01*
X61429Y52506D01*
X61434Y52511D01*
X61438Y52508D01*
X62509Y52879D01*
X62513Y52885D01*
X62518Y52883D01*
X63495Y53456D01*
X63498Y53462D01*
X63503Y53461D01*
X64350Y54214D01*
X64352Y54221D01*
X64357Y54221D01*
X65041Y55124D01*
X65041Y55131D01*
X65046Y55132D01*
X65541Y56151D01*
X65539Y56158D01*
X65544Y56160D01*
X65831Y57257D01*
X65829Y57261D01*
X65831Y57262D01*
X65829Y57264D01*
X65832Y57266D01*
X65899Y58397D01*
X65897Y58401D01*
X65899Y58403D01*
X65832Y59534D01*
X65827Y59539D01*
X65831Y59543D01*
X65544Y60640D01*
X65538Y60644D01*
X65541Y60649D01*
X65046Y61668D01*
X65040Y61671D01*
X65041Y61676D01*
X64357Y62579D01*
X64350Y62581D01*
X64350Y62586D01*
X63503Y63339D01*
X63496Y63339D01*
X63495Y63344D01*
X62518Y63917D01*
X62511Y63916D01*
X62509Y63921D01*
X61438Y64292D01*
X61432Y64289D01*
X61429Y64294D01*
X60307Y64449D01*
X60302Y64446D01*
X60300Y64449D01*
X48300Y64449D01*
X48295Y64446D01*
X48292Y64449D01*
X47025Y64244D01*
X47019Y64238D01*
X47015Y64241D01*
X45825Y63759D01*
X45821Y63752D01*
X45815Y63754D01*
X44762Y63020D01*
X44760Y63012D01*
X44754Y63013D01*
X43891Y62063D01*
X43890Y62054D01*
X43885Y62054D01*
X43255Y60935D01*
X43256Y60927D01*
X43250Y60925D01*
X42885Y59695D01*
X42888Y59687D01*
X42883Y59684D01*
X42801Y58403D01*
X42804Y58399D01*
X42801Y58397D01*
X42883Y57116D01*
X42889Y57110D01*
X42885Y57105D01*
X43250Y55875D01*
X43257Y55870D01*
X43255Y55865D01*
X43885Y54746D01*
X43892Y54743D01*
X43891Y54737D01*
X44754Y53787D01*
X44762Y53786D01*
X44762Y53780D01*
X45815Y53046D01*
X45823Y53046D01*
X45825Y53041D01*
X47015Y52559D01*
X47022Y52561D01*
X47025Y52556D01*
X48292Y52351D01*
X48297Y52354D01*
X48300Y52351D01*
X60300Y52351D01*
X60304Y52354D01*
G37*
G36*
X804524Y52354D02*
X804524Y52354D01*
X804527Y52351D01*
X805649Y52506D01*
X805654Y52511D01*
X805658Y52508D01*
X806729Y52879D01*
X806733Y52885D01*
X806738Y52883D01*
X807715Y53456D01*
X807718Y53462D01*
X807723Y53461D01*
X808570Y54214D01*
X808572Y54221D01*
X808577Y54221D01*
X809261Y55124D01*
X809261Y55131D01*
X809266Y55132D01*
X809761Y56151D01*
X809759Y56158D01*
X809764Y56160D01*
X810051Y57257D01*
X810049Y57261D01*
X810051Y57262D01*
X810049Y57264D01*
X810052Y57266D01*
X810119Y58397D01*
X810117Y58401D01*
X810119Y58403D01*
X810052Y59534D01*
X810047Y59539D01*
X810051Y59543D01*
X809764Y60640D01*
X809758Y60644D01*
X809761Y60649D01*
X809266Y61668D01*
X809260Y61671D01*
X809261Y61676D01*
X808577Y62579D01*
X808570Y62581D01*
X808570Y62586D01*
X807723Y63339D01*
X807716Y63339D01*
X807715Y63344D01*
X806738Y63917D01*
X806731Y63916D01*
X806729Y63921D01*
X805658Y64292D01*
X805652Y64289D01*
X805649Y64294D01*
X804527Y64449D01*
X804522Y64446D01*
X804520Y64449D01*
X792520Y64449D01*
X792515Y64446D01*
X792512Y64449D01*
X791245Y64244D01*
X791239Y64238D01*
X791235Y64241D01*
X790045Y63759D01*
X790041Y63752D01*
X790035Y63754D01*
X788982Y63020D01*
X788980Y63012D01*
X788974Y63013D01*
X788111Y62063D01*
X788110Y62054D01*
X788105Y62054D01*
X787475Y60935D01*
X787476Y60927D01*
X787470Y60925D01*
X787105Y59695D01*
X787108Y59687D01*
X787103Y59684D01*
X787021Y58403D01*
X787024Y58399D01*
X787021Y58397D01*
X787103Y57116D01*
X787109Y57110D01*
X787105Y57105D01*
X787470Y55875D01*
X787477Y55870D01*
X787475Y55865D01*
X788105Y54746D01*
X788112Y54743D01*
X788111Y54737D01*
X788974Y53787D01*
X788982Y53786D01*
X788982Y53780D01*
X790035Y53046D01*
X790043Y53046D01*
X790045Y53041D01*
X791235Y52559D01*
X791242Y52561D01*
X791245Y52556D01*
X792512Y52351D01*
X792517Y52354D01*
X792520Y52351D01*
X804520Y52351D01*
X804524Y52354D01*
G37*
G36*
X759723Y641633D02*
X759723Y641633D01*
X759725Y641631D01*
X760901Y641742D01*
X760906Y641747D01*
X760910Y641744D01*
X762042Y642082D01*
X762046Y642088D01*
X762051Y642086D01*
X763095Y642638D01*
X763098Y642645D01*
X763103Y642643D01*
X764019Y643389D01*
X764020Y643396D01*
X764026Y643396D01*
X764779Y644306D01*
X764779Y644313D01*
X764784Y644314D01*
X765345Y645353D01*
X765344Y645358D01*
X765348Y645360D01*
X765347Y645361D01*
X765349Y645362D01*
X765696Y646491D01*
X765696Y646492D01*
X765697Y646493D01*
X765694Y646497D01*
X765698Y646500D01*
X765819Y647675D01*
X765815Y647682D01*
X765819Y647686D01*
X765662Y649026D01*
X765657Y649032D01*
X765660Y649037D01*
X765209Y650308D01*
X765202Y650313D01*
X765204Y650318D01*
X764482Y651457D01*
X764474Y651460D01*
X764475Y651466D01*
X763517Y652416D01*
X763509Y652417D01*
X763508Y652423D01*
X762363Y653136D01*
X762355Y653135D01*
X762353Y653141D01*
X761077Y653581D01*
X761070Y653579D01*
X761067Y653583D01*
X759725Y653729D01*
X759722Y653727D01*
X759720Y653729D01*
X753720Y653729D01*
X753717Y653727D01*
X753714Y653729D01*
X752385Y653574D01*
X752379Y653568D01*
X752375Y653571D01*
X751114Y653124D01*
X751109Y653117D01*
X751104Y653119D01*
X749974Y652402D01*
X749971Y652395D01*
X749965Y652396D01*
X749023Y651446D01*
X749022Y651437D01*
X749016Y651437D01*
X748309Y650301D01*
X748310Y650293D01*
X748304Y650291D01*
X747868Y649026D01*
X747870Y649018D01*
X747865Y649016D01*
X747721Y647685D01*
X747725Y647679D01*
X747721Y647675D01*
X747831Y646509D01*
X747836Y646504D01*
X747833Y646500D01*
X748168Y645377D01*
X748174Y645373D01*
X748172Y645369D01*
X748720Y644333D01*
X748726Y644330D01*
X748725Y644325D01*
X749464Y643417D01*
X749471Y643415D01*
X749471Y643410D01*
X750373Y642663D01*
X750381Y642663D01*
X750381Y642658D01*
X751412Y642101D01*
X751419Y642102D01*
X751421Y642097D01*
X752540Y641753D01*
X752547Y641755D01*
X752550Y641751D01*
X753715Y641631D01*
X753718Y641633D01*
X753720Y641631D01*
X759720Y641631D01*
X759723Y641633D01*
G37*
G36*
X15503Y641633D02*
X15503Y641633D01*
X15505Y641631D01*
X16681Y641742D01*
X16686Y641747D01*
X16690Y641744D01*
X17822Y642082D01*
X17826Y642088D01*
X17831Y642086D01*
X18875Y642638D01*
X18878Y642645D01*
X18883Y642643D01*
X19799Y643389D01*
X19800Y643396D01*
X19806Y643396D01*
X20559Y644306D01*
X20559Y644313D01*
X20564Y644314D01*
X21125Y645353D01*
X21124Y645358D01*
X21128Y645360D01*
X21127Y645361D01*
X21129Y645362D01*
X21476Y646491D01*
X21476Y646492D01*
X21477Y646493D01*
X21474Y646497D01*
X21478Y646500D01*
X21599Y647675D01*
X21595Y647682D01*
X21599Y647686D01*
X21442Y649026D01*
X21437Y649032D01*
X21440Y649037D01*
X20989Y650308D01*
X20982Y650313D01*
X20984Y650318D01*
X20262Y651457D01*
X20254Y651460D01*
X20255Y651466D01*
X19297Y652416D01*
X19289Y652417D01*
X19288Y652423D01*
X18143Y653136D01*
X18135Y653135D01*
X18133Y653141D01*
X16857Y653581D01*
X16850Y653579D01*
X16847Y653583D01*
X15505Y653729D01*
X15502Y653727D01*
X15500Y653729D01*
X9500Y653729D01*
X9497Y653727D01*
X9494Y653729D01*
X8165Y653574D01*
X8159Y653568D01*
X8155Y653571D01*
X6894Y653124D01*
X6889Y653117D01*
X6884Y653119D01*
X5754Y652402D01*
X5751Y652395D01*
X5745Y652396D01*
X4803Y651446D01*
X4802Y651437D01*
X4796Y651437D01*
X4089Y650301D01*
X4090Y650293D01*
X4084Y650291D01*
X3648Y649026D01*
X3650Y649018D01*
X3645Y649016D01*
X3501Y647685D01*
X3505Y647679D01*
X3501Y647675D01*
X3611Y646509D01*
X3616Y646504D01*
X3613Y646500D01*
X3948Y645377D01*
X3954Y645373D01*
X3952Y645369D01*
X4500Y644333D01*
X4506Y644330D01*
X4505Y644325D01*
X5244Y643417D01*
X5251Y643415D01*
X5251Y643410D01*
X6153Y642663D01*
X6161Y642663D01*
X6161Y642658D01*
X7192Y642101D01*
X7199Y642102D01*
X7201Y642097D01*
X8320Y641753D01*
X8327Y641755D01*
X8330Y641751D01*
X9495Y641631D01*
X9498Y641633D01*
X9500Y641631D01*
X15500Y641631D01*
X15503Y641633D01*
G37*
G36*
X759723Y138753D02*
X759723Y138753D01*
X759725Y138751D01*
X760901Y138862D01*
X760906Y138867D01*
X760910Y138864D01*
X762042Y139202D01*
X762046Y139208D01*
X762051Y139206D01*
X763095Y139758D01*
X763098Y139765D01*
X763103Y139763D01*
X764019Y140509D01*
X764020Y140516D01*
X764026Y140516D01*
X764779Y141426D01*
X764779Y141433D01*
X764784Y141434D01*
X765345Y142473D01*
X765344Y142478D01*
X765348Y142480D01*
X765347Y142481D01*
X765349Y142482D01*
X765696Y143611D01*
X765696Y143612D01*
X765697Y143613D01*
X765694Y143617D01*
X765698Y143620D01*
X765819Y144795D01*
X765815Y144802D01*
X765819Y144806D01*
X765662Y146146D01*
X765657Y146152D01*
X765660Y146157D01*
X765209Y147428D01*
X765202Y147433D01*
X765204Y147438D01*
X764482Y148577D01*
X764474Y148580D01*
X764475Y148586D01*
X763517Y149536D01*
X763509Y149537D01*
X763508Y149543D01*
X762363Y150256D01*
X762355Y150255D01*
X762353Y150261D01*
X761077Y150701D01*
X761070Y150699D01*
X761067Y150703D01*
X759725Y150849D01*
X759722Y150847D01*
X759720Y150849D01*
X753720Y150849D01*
X753717Y150847D01*
X753714Y150849D01*
X752385Y150694D01*
X752379Y150688D01*
X752375Y150691D01*
X751114Y150244D01*
X751109Y150237D01*
X751104Y150239D01*
X749974Y149522D01*
X749971Y149515D01*
X749965Y149516D01*
X749023Y148566D01*
X749022Y148557D01*
X749016Y148557D01*
X748309Y147421D01*
X748310Y147413D01*
X748304Y147411D01*
X747868Y146146D01*
X747870Y146138D01*
X747865Y146136D01*
X747721Y144805D01*
X747725Y144799D01*
X747721Y144795D01*
X747831Y143629D01*
X747836Y143624D01*
X747833Y143620D01*
X748168Y142497D01*
X748174Y142493D01*
X748172Y142489D01*
X748720Y141453D01*
X748726Y141450D01*
X748725Y141445D01*
X749464Y140537D01*
X749471Y140535D01*
X749471Y140530D01*
X750373Y139783D01*
X750381Y139783D01*
X750381Y139778D01*
X751412Y139221D01*
X751419Y139222D01*
X751421Y139217D01*
X752540Y138873D01*
X752547Y138875D01*
X752550Y138871D01*
X753715Y138751D01*
X753718Y138753D01*
X753720Y138751D01*
X759720Y138751D01*
X759723Y138753D01*
G37*
G36*
X15503Y728033D02*
X15503Y728033D01*
X15505Y728031D01*
X16681Y728142D01*
X16686Y728147D01*
X16690Y728144D01*
X17822Y728482D01*
X17826Y728488D01*
X17831Y728486D01*
X18875Y729038D01*
X18878Y729045D01*
X18883Y729043D01*
X19799Y729789D01*
X19800Y729796D01*
X19806Y729796D01*
X20559Y730706D01*
X20559Y730713D01*
X20564Y730714D01*
X21125Y731753D01*
X21124Y731758D01*
X21128Y731760D01*
X21127Y731761D01*
X21129Y731762D01*
X21476Y732891D01*
X21476Y732892D01*
X21477Y732893D01*
X21474Y732897D01*
X21478Y732900D01*
X21599Y734075D01*
X21595Y734082D01*
X21599Y734086D01*
X21442Y735426D01*
X21437Y735432D01*
X21440Y735437D01*
X20989Y736708D01*
X20982Y736713D01*
X20984Y736718D01*
X20262Y737857D01*
X20254Y737860D01*
X20255Y737866D01*
X19297Y738816D01*
X19289Y738817D01*
X19288Y738823D01*
X18143Y739536D01*
X18135Y739535D01*
X18133Y739541D01*
X16857Y739981D01*
X16850Y739979D01*
X16847Y739983D01*
X15505Y740129D01*
X15502Y740127D01*
X15500Y740129D01*
X9500Y740129D01*
X9497Y740127D01*
X9494Y740129D01*
X8165Y739974D01*
X8159Y739968D01*
X8155Y739971D01*
X6894Y739524D01*
X6889Y739517D01*
X6884Y739519D01*
X5754Y738802D01*
X5751Y738795D01*
X5745Y738796D01*
X4803Y737846D01*
X4802Y737837D01*
X4796Y737837D01*
X4089Y736701D01*
X4090Y736693D01*
X4084Y736691D01*
X3648Y735426D01*
X3650Y735418D01*
X3645Y735416D01*
X3501Y734085D01*
X3505Y734079D01*
X3501Y734075D01*
X3611Y732909D01*
X3616Y732904D01*
X3613Y732900D01*
X3948Y731777D01*
X3954Y731773D01*
X3952Y731769D01*
X4500Y730733D01*
X4506Y730730D01*
X4505Y730725D01*
X5244Y729817D01*
X5251Y729815D01*
X5251Y729810D01*
X6153Y729063D01*
X6161Y729063D01*
X6161Y729058D01*
X7192Y728501D01*
X7199Y728502D01*
X7201Y728497D01*
X8320Y728153D01*
X8327Y728155D01*
X8330Y728151D01*
X9495Y728031D01*
X9498Y728033D01*
X9500Y728031D01*
X15500Y728031D01*
X15503Y728033D01*
G37*
G36*
X759723Y728033D02*
X759723Y728033D01*
X759725Y728031D01*
X760901Y728142D01*
X760906Y728147D01*
X760910Y728144D01*
X762042Y728482D01*
X762046Y728488D01*
X762051Y728486D01*
X763095Y729038D01*
X763098Y729045D01*
X763103Y729043D01*
X764019Y729789D01*
X764020Y729796D01*
X764026Y729796D01*
X764779Y730706D01*
X764779Y730713D01*
X764784Y730714D01*
X765345Y731753D01*
X765344Y731758D01*
X765348Y731760D01*
X765347Y731761D01*
X765349Y731762D01*
X765696Y732891D01*
X765696Y732892D01*
X765697Y732893D01*
X765694Y732897D01*
X765698Y732900D01*
X765819Y734075D01*
X765815Y734082D01*
X765819Y734086D01*
X765662Y735426D01*
X765657Y735432D01*
X765660Y735437D01*
X765209Y736708D01*
X765202Y736713D01*
X765204Y736718D01*
X764482Y737857D01*
X764474Y737860D01*
X764475Y737866D01*
X763517Y738816D01*
X763509Y738817D01*
X763508Y738823D01*
X762363Y739536D01*
X762355Y739535D01*
X762353Y739541D01*
X761077Y739981D01*
X761070Y739979D01*
X761067Y739983D01*
X759725Y740129D01*
X759722Y740127D01*
X759720Y740129D01*
X753720Y740129D01*
X753717Y740127D01*
X753714Y740129D01*
X752385Y739974D01*
X752379Y739968D01*
X752375Y739971D01*
X751114Y739524D01*
X751109Y739517D01*
X751104Y739519D01*
X749974Y738802D01*
X749971Y738795D01*
X749965Y738796D01*
X749023Y737846D01*
X749022Y737837D01*
X749016Y737837D01*
X748309Y736701D01*
X748310Y736693D01*
X748304Y736691D01*
X747868Y735426D01*
X747870Y735418D01*
X747865Y735416D01*
X747721Y734085D01*
X747725Y734079D01*
X747721Y734075D01*
X747831Y732909D01*
X747836Y732904D01*
X747833Y732900D01*
X748168Y731777D01*
X748174Y731773D01*
X748172Y731769D01*
X748720Y730733D01*
X748726Y730730D01*
X748725Y730725D01*
X749464Y729817D01*
X749471Y729815D01*
X749471Y729810D01*
X750373Y729063D01*
X750381Y729063D01*
X750381Y729058D01*
X751412Y728501D01*
X751419Y728502D01*
X751421Y728497D01*
X752540Y728153D01*
X752547Y728155D01*
X752550Y728151D01*
X753715Y728031D01*
X753718Y728033D01*
X753720Y728031D01*
X759720Y728031D01*
X759723Y728033D01*
G37*
G36*
X15503Y138753D02*
X15503Y138753D01*
X15505Y138751D01*
X16681Y138862D01*
X16686Y138867D01*
X16690Y138864D01*
X17822Y139202D01*
X17826Y139208D01*
X17831Y139206D01*
X18875Y139758D01*
X18878Y139765D01*
X18883Y139763D01*
X19799Y140509D01*
X19800Y140516D01*
X19806Y140516D01*
X20559Y141426D01*
X20559Y141433D01*
X20564Y141434D01*
X21125Y142473D01*
X21124Y142478D01*
X21128Y142480D01*
X21127Y142481D01*
X21129Y142482D01*
X21476Y143611D01*
X21476Y143612D01*
X21477Y143613D01*
X21474Y143617D01*
X21478Y143620D01*
X21599Y144795D01*
X21595Y144802D01*
X21599Y144806D01*
X21442Y146146D01*
X21437Y146152D01*
X21440Y146157D01*
X20989Y147428D01*
X20982Y147433D01*
X20984Y147438D01*
X20262Y148577D01*
X20254Y148580D01*
X20255Y148586D01*
X19297Y149536D01*
X19289Y149537D01*
X19288Y149543D01*
X18143Y150256D01*
X18135Y150255D01*
X18133Y150261D01*
X16857Y150701D01*
X16850Y150699D01*
X16847Y150703D01*
X15505Y150849D01*
X15502Y150847D01*
X15500Y150849D01*
X9500Y150849D01*
X9497Y150847D01*
X9494Y150849D01*
X8165Y150694D01*
X8159Y150688D01*
X8155Y150691D01*
X6894Y150244D01*
X6889Y150237D01*
X6884Y150239D01*
X5754Y149522D01*
X5751Y149515D01*
X5745Y149516D01*
X4803Y148566D01*
X4802Y148557D01*
X4796Y148557D01*
X4089Y147421D01*
X4090Y147413D01*
X4084Y147411D01*
X3648Y146146D01*
X3650Y146138D01*
X3645Y146136D01*
X3501Y144805D01*
X3505Y144799D01*
X3501Y144795D01*
X3611Y143629D01*
X3616Y143624D01*
X3613Y143620D01*
X3948Y142497D01*
X3954Y142493D01*
X3952Y142489D01*
X4500Y141453D01*
X4506Y141450D01*
X4505Y141445D01*
X5244Y140537D01*
X5251Y140535D01*
X5251Y140530D01*
X6153Y139783D01*
X6161Y139783D01*
X6161Y139778D01*
X7192Y139221D01*
X7199Y139222D01*
X7201Y139217D01*
X8320Y138873D01*
X8327Y138875D01*
X8330Y138871D01*
X9495Y138751D01*
X9498Y138753D01*
X9500Y138751D01*
X15500Y138751D01*
X15503Y138753D01*
G37*
G36*
X759723Y52353D02*
X759723Y52353D01*
X759725Y52351D01*
X760901Y52462D01*
X760906Y52467D01*
X760910Y52464D01*
X762042Y52802D01*
X762046Y52808D01*
X762051Y52806D01*
X763095Y53358D01*
X763098Y53365D01*
X763103Y53363D01*
X764019Y54109D01*
X764020Y54116D01*
X764026Y54116D01*
X764779Y55026D01*
X764779Y55033D01*
X764784Y55034D01*
X765345Y56073D01*
X765344Y56078D01*
X765348Y56080D01*
X765347Y56081D01*
X765349Y56082D01*
X765696Y57211D01*
X765696Y57212D01*
X765697Y57213D01*
X765694Y57217D01*
X765698Y57220D01*
X765819Y58395D01*
X765815Y58402D01*
X765819Y58406D01*
X765662Y59746D01*
X765657Y59752D01*
X765660Y59757D01*
X765209Y61028D01*
X765202Y61033D01*
X765204Y61038D01*
X764482Y62177D01*
X764474Y62180D01*
X764475Y62186D01*
X763517Y63136D01*
X763509Y63137D01*
X763508Y63143D01*
X762363Y63856D01*
X762355Y63855D01*
X762353Y63861D01*
X761077Y64301D01*
X761070Y64299D01*
X761067Y64303D01*
X759725Y64449D01*
X759722Y64447D01*
X759720Y64449D01*
X753720Y64449D01*
X753717Y64447D01*
X753714Y64449D01*
X752385Y64294D01*
X752379Y64288D01*
X752375Y64291D01*
X751114Y63844D01*
X751109Y63837D01*
X751104Y63839D01*
X749974Y63122D01*
X749971Y63115D01*
X749965Y63116D01*
X749023Y62166D01*
X749022Y62157D01*
X749016Y62157D01*
X748309Y61021D01*
X748310Y61013D01*
X748304Y61011D01*
X747868Y59746D01*
X747870Y59738D01*
X747865Y59736D01*
X747721Y58405D01*
X747725Y58399D01*
X747721Y58395D01*
X747831Y57229D01*
X747836Y57224D01*
X747833Y57220D01*
X748168Y56097D01*
X748174Y56093D01*
X748172Y56089D01*
X748720Y55053D01*
X748726Y55050D01*
X748725Y55045D01*
X749464Y54137D01*
X749471Y54135D01*
X749471Y54130D01*
X750373Y53383D01*
X750381Y53383D01*
X750381Y53378D01*
X751412Y52821D01*
X751419Y52822D01*
X751421Y52817D01*
X752540Y52473D01*
X752547Y52475D01*
X752550Y52471D01*
X753715Y52351D01*
X753718Y52353D01*
X753720Y52351D01*
X759720Y52351D01*
X759723Y52353D01*
G37*
G36*
X15503Y52353D02*
X15503Y52353D01*
X15505Y52351D01*
X16681Y52462D01*
X16686Y52467D01*
X16690Y52464D01*
X17822Y52802D01*
X17826Y52808D01*
X17831Y52806D01*
X18875Y53358D01*
X18878Y53365D01*
X18883Y53363D01*
X19799Y54109D01*
X19800Y54116D01*
X19806Y54116D01*
X20559Y55026D01*
X20559Y55033D01*
X20564Y55034D01*
X21125Y56073D01*
X21124Y56078D01*
X21128Y56080D01*
X21127Y56081D01*
X21129Y56082D01*
X21476Y57211D01*
X21476Y57212D01*
X21477Y57213D01*
X21474Y57217D01*
X21478Y57220D01*
X21599Y58395D01*
X21595Y58402D01*
X21599Y58406D01*
X21442Y59746D01*
X21437Y59752D01*
X21440Y59757D01*
X20989Y61028D01*
X20982Y61033D01*
X20984Y61038D01*
X20262Y62177D01*
X20254Y62180D01*
X20255Y62186D01*
X19297Y63136D01*
X19289Y63137D01*
X19288Y63143D01*
X18143Y63856D01*
X18135Y63855D01*
X18133Y63861D01*
X16857Y64301D01*
X16850Y64299D01*
X16847Y64303D01*
X15505Y64449D01*
X15502Y64447D01*
X15500Y64449D01*
X9500Y64449D01*
X9497Y64447D01*
X9494Y64449D01*
X8165Y64294D01*
X8159Y64288D01*
X8155Y64291D01*
X6894Y63844D01*
X6889Y63837D01*
X6884Y63839D01*
X5754Y63122D01*
X5751Y63115D01*
X5745Y63116D01*
X4803Y62166D01*
X4802Y62157D01*
X4796Y62157D01*
X4089Y61021D01*
X4090Y61013D01*
X4084Y61011D01*
X3648Y59746D01*
X3650Y59738D01*
X3645Y59736D01*
X3501Y58405D01*
X3505Y58399D01*
X3501Y58395D01*
X3611Y57229D01*
X3616Y57224D01*
X3613Y57220D01*
X3948Y56097D01*
X3954Y56093D01*
X3952Y56089D01*
X4500Y55053D01*
X4506Y55050D01*
X4505Y55045D01*
X5244Y54137D01*
X5251Y54135D01*
X5251Y54130D01*
X6153Y53383D01*
X6161Y53383D01*
X6161Y53378D01*
X7192Y52821D01*
X7199Y52822D01*
X7201Y52817D01*
X8320Y52473D01*
X8327Y52475D01*
X8330Y52471D01*
X9495Y52351D01*
X9498Y52353D01*
X9500Y52351D01*
X15500Y52351D01*
X15503Y52353D01*
G37*
G36*
X852870Y598563D02*
X852870Y598563D01*
X852936Y598565D01*
X852979Y598583D01*
X853026Y598591D01*
X853083Y598625D01*
X853143Y598650D01*
X853178Y598681D01*
X853219Y598706D01*
X853261Y598757D01*
X853309Y598801D01*
X853331Y598843D01*
X853360Y598880D01*
X853381Y598942D01*
X853412Y599001D01*
X853420Y599055D01*
X853432Y599092D01*
X853431Y599132D01*
X853439Y599186D01*
X853439Y604774D01*
X853428Y604839D01*
X853426Y604905D01*
X853408Y604948D01*
X853400Y604995D01*
X853366Y605052D01*
X853341Y605112D01*
X853310Y605147D01*
X853285Y605188D01*
X853234Y605230D01*
X853190Y605278D01*
X853148Y605300D01*
X853111Y605329D01*
X853049Y605350D01*
X852990Y605381D01*
X852936Y605389D01*
X852899Y605401D01*
X852859Y605400D01*
X852805Y605408D01*
X848995Y605408D01*
X848930Y605397D01*
X848864Y605395D01*
X848821Y605377D01*
X848774Y605369D01*
X848717Y605335D01*
X848657Y605310D01*
X848622Y605279D01*
X848581Y605254D01*
X848540Y605203D01*
X848491Y605159D01*
X848469Y605117D01*
X848440Y605080D01*
X848419Y605018D01*
X848388Y604959D01*
X848380Y604905D01*
X848368Y604868D01*
X848369Y604828D01*
X848361Y604774D01*
X848361Y599186D01*
X848372Y599121D01*
X848374Y599055D01*
X848392Y599012D01*
X848400Y598965D01*
X848434Y598908D01*
X848459Y598848D01*
X848490Y598813D01*
X848515Y598772D01*
X848566Y598731D01*
X848610Y598682D01*
X848652Y598660D01*
X848689Y598631D01*
X848751Y598610D01*
X848810Y598579D01*
X848864Y598571D01*
X848901Y598559D01*
X848941Y598560D01*
X848995Y598552D01*
X852805Y598552D01*
X852870Y598563D01*
G37*
G36*
X108650Y598563D02*
X108650Y598563D01*
X108716Y598565D01*
X108759Y598583D01*
X108806Y598591D01*
X108863Y598625D01*
X108923Y598650D01*
X108958Y598681D01*
X108999Y598706D01*
X109041Y598757D01*
X109089Y598801D01*
X109111Y598843D01*
X109140Y598880D01*
X109161Y598942D01*
X109192Y599001D01*
X109200Y599055D01*
X109212Y599092D01*
X109211Y599132D01*
X109219Y599186D01*
X109219Y604774D01*
X109208Y604839D01*
X109206Y604905D01*
X109188Y604948D01*
X109180Y604995D01*
X109146Y605052D01*
X109121Y605112D01*
X109090Y605147D01*
X109065Y605188D01*
X109014Y605230D01*
X108970Y605278D01*
X108928Y605300D01*
X108891Y605329D01*
X108829Y605350D01*
X108770Y605381D01*
X108716Y605389D01*
X108679Y605401D01*
X108639Y605400D01*
X108585Y605408D01*
X104775Y605408D01*
X104710Y605397D01*
X104644Y605395D01*
X104601Y605377D01*
X104554Y605369D01*
X104497Y605335D01*
X104437Y605310D01*
X104402Y605279D01*
X104361Y605254D01*
X104320Y605203D01*
X104271Y605159D01*
X104249Y605117D01*
X104220Y605080D01*
X104199Y605018D01*
X104168Y604959D01*
X104160Y604905D01*
X104148Y604868D01*
X104149Y604828D01*
X104141Y604774D01*
X104141Y599186D01*
X104152Y599121D01*
X104154Y599055D01*
X104172Y599012D01*
X104180Y598965D01*
X104214Y598908D01*
X104239Y598848D01*
X104270Y598813D01*
X104295Y598772D01*
X104346Y598731D01*
X104390Y598682D01*
X104432Y598660D01*
X104469Y598631D01*
X104531Y598610D01*
X104590Y598579D01*
X104644Y598571D01*
X104681Y598559D01*
X104721Y598560D01*
X104775Y598552D01*
X108585Y598552D01*
X108650Y598563D01*
G37*
G36*
X108650Y9283D02*
X108650Y9283D01*
X108716Y9285D01*
X108759Y9303D01*
X108806Y9311D01*
X108863Y9345D01*
X108923Y9370D01*
X108958Y9401D01*
X108999Y9426D01*
X109041Y9477D01*
X109089Y9521D01*
X109111Y9563D01*
X109140Y9600D01*
X109161Y9662D01*
X109192Y9721D01*
X109200Y9775D01*
X109212Y9812D01*
X109211Y9852D01*
X109219Y9906D01*
X109219Y15494D01*
X109208Y15559D01*
X109206Y15625D01*
X109188Y15668D01*
X109180Y15715D01*
X109146Y15772D01*
X109121Y15832D01*
X109090Y15867D01*
X109065Y15908D01*
X109014Y15950D01*
X108970Y15998D01*
X108928Y16020D01*
X108891Y16049D01*
X108829Y16070D01*
X108770Y16101D01*
X108716Y16109D01*
X108679Y16121D01*
X108639Y16120D01*
X108585Y16128D01*
X104775Y16128D01*
X104710Y16117D01*
X104644Y16115D01*
X104601Y16097D01*
X104554Y16089D01*
X104497Y16055D01*
X104437Y16030D01*
X104402Y15999D01*
X104361Y15974D01*
X104320Y15923D01*
X104271Y15879D01*
X104249Y15837D01*
X104220Y15800D01*
X104199Y15738D01*
X104168Y15679D01*
X104160Y15625D01*
X104148Y15588D01*
X104149Y15548D01*
X104141Y15494D01*
X104141Y9906D01*
X104152Y9841D01*
X104154Y9775D01*
X104172Y9732D01*
X104180Y9685D01*
X104214Y9628D01*
X104239Y9568D01*
X104270Y9533D01*
X104295Y9492D01*
X104346Y9451D01*
X104390Y9402D01*
X104432Y9380D01*
X104469Y9351D01*
X104531Y9330D01*
X104590Y9299D01*
X104644Y9291D01*
X104681Y9279D01*
X104721Y9280D01*
X104775Y9272D01*
X108585Y9272D01*
X108650Y9283D01*
G37*
G36*
X852870Y9283D02*
X852870Y9283D01*
X852936Y9285D01*
X852979Y9303D01*
X853026Y9311D01*
X853083Y9345D01*
X853143Y9370D01*
X853178Y9401D01*
X853219Y9426D01*
X853261Y9477D01*
X853309Y9521D01*
X853331Y9563D01*
X853360Y9600D01*
X853381Y9662D01*
X853412Y9721D01*
X853420Y9775D01*
X853432Y9812D01*
X853431Y9852D01*
X853439Y9906D01*
X853439Y15494D01*
X853428Y15559D01*
X853426Y15625D01*
X853408Y15668D01*
X853400Y15715D01*
X853366Y15772D01*
X853341Y15832D01*
X853310Y15867D01*
X853285Y15908D01*
X853234Y15950D01*
X853190Y15998D01*
X853148Y16020D01*
X853111Y16049D01*
X853049Y16070D01*
X852990Y16101D01*
X852936Y16109D01*
X852899Y16121D01*
X852859Y16120D01*
X852805Y16128D01*
X848995Y16128D01*
X848930Y16117D01*
X848864Y16115D01*
X848821Y16097D01*
X848774Y16089D01*
X848717Y16055D01*
X848657Y16030D01*
X848622Y15999D01*
X848581Y15974D01*
X848540Y15923D01*
X848491Y15879D01*
X848469Y15837D01*
X848440Y15800D01*
X848419Y15738D01*
X848388Y15679D01*
X848380Y15625D01*
X848368Y15588D01*
X848369Y15548D01*
X848361Y15494D01*
X848361Y9906D01*
X848372Y9841D01*
X848374Y9775D01*
X848392Y9732D01*
X848400Y9685D01*
X848434Y9628D01*
X848459Y9568D01*
X848490Y9533D01*
X848515Y9492D01*
X848566Y9451D01*
X848610Y9402D01*
X848652Y9380D01*
X848689Y9351D01*
X848751Y9330D01*
X848810Y9299D01*
X848864Y9291D01*
X848901Y9279D01*
X848941Y9280D01*
X848995Y9272D01*
X852805Y9272D01*
X852870Y9283D01*
G37*
G36*
X395035Y706132D02*
X395035Y706132D01*
X395101Y706134D01*
X395144Y706152D01*
X395191Y706160D01*
X395248Y706194D01*
X395308Y706219D01*
X395343Y706250D01*
X395384Y706275D01*
X395426Y706326D01*
X395474Y706370D01*
X395496Y706412D01*
X395525Y706449D01*
X395546Y706511D01*
X395577Y706570D01*
X395585Y706624D01*
X395597Y706661D01*
X395596Y706701D01*
X395604Y706755D01*
X395604Y710565D01*
X395593Y710630D01*
X395591Y710696D01*
X395573Y710739D01*
X395565Y710786D01*
X395531Y710843D01*
X395506Y710903D01*
X395475Y710938D01*
X395450Y710979D01*
X395399Y711021D01*
X395355Y711069D01*
X395313Y711091D01*
X395276Y711120D01*
X395214Y711141D01*
X395155Y711172D01*
X395101Y711180D01*
X395064Y711192D01*
X395024Y711191D01*
X394970Y711199D01*
X392430Y711199D01*
X392365Y711188D01*
X392299Y711186D01*
X392256Y711168D01*
X392209Y711160D01*
X392152Y711126D01*
X392092Y711101D01*
X392057Y711070D01*
X392016Y711045D01*
X391975Y710994D01*
X391926Y710950D01*
X391904Y710908D01*
X391875Y710871D01*
X391854Y710809D01*
X391823Y710750D01*
X391815Y710696D01*
X391803Y710659D01*
X391803Y710655D01*
X391803Y710654D01*
X391804Y710619D01*
X391796Y710565D01*
X391796Y706755D01*
X391807Y706690D01*
X391809Y706624D01*
X391827Y706581D01*
X391835Y706534D01*
X391869Y706477D01*
X391894Y706417D01*
X391925Y706382D01*
X391950Y706341D01*
X392001Y706300D01*
X392045Y706251D01*
X392087Y706229D01*
X392124Y706200D01*
X392186Y706179D01*
X392245Y706148D01*
X392299Y706140D01*
X392336Y706128D01*
X392376Y706129D01*
X392430Y706121D01*
X394970Y706121D01*
X395035Y706132D01*
G37*
G36*
X1139255Y706132D02*
X1139255Y706132D01*
X1139321Y706134D01*
X1139364Y706152D01*
X1139411Y706160D01*
X1139468Y706194D01*
X1139528Y706219D01*
X1139563Y706250D01*
X1139604Y706275D01*
X1139646Y706326D01*
X1139694Y706370D01*
X1139716Y706412D01*
X1139745Y706449D01*
X1139766Y706511D01*
X1139797Y706570D01*
X1139805Y706624D01*
X1139817Y706661D01*
X1139816Y706701D01*
X1139824Y706755D01*
X1139824Y710565D01*
X1139813Y710630D01*
X1139811Y710696D01*
X1139793Y710739D01*
X1139785Y710786D01*
X1139751Y710843D01*
X1139726Y710903D01*
X1139695Y710938D01*
X1139670Y710979D01*
X1139619Y711021D01*
X1139575Y711069D01*
X1139533Y711091D01*
X1139496Y711120D01*
X1139434Y711141D01*
X1139375Y711172D01*
X1139321Y711180D01*
X1139284Y711192D01*
X1139244Y711191D01*
X1139190Y711199D01*
X1136650Y711199D01*
X1136585Y711188D01*
X1136519Y711186D01*
X1136476Y711168D01*
X1136429Y711160D01*
X1136372Y711126D01*
X1136312Y711101D01*
X1136277Y711070D01*
X1136236Y711045D01*
X1136195Y710994D01*
X1136146Y710950D01*
X1136124Y710908D01*
X1136095Y710871D01*
X1136074Y710809D01*
X1136043Y710750D01*
X1136035Y710696D01*
X1136023Y710659D01*
X1136023Y710655D01*
X1136023Y710654D01*
X1136024Y710619D01*
X1136016Y710565D01*
X1136016Y706755D01*
X1136027Y706690D01*
X1136029Y706624D01*
X1136047Y706581D01*
X1136055Y706534D01*
X1136089Y706477D01*
X1136114Y706417D01*
X1136145Y706382D01*
X1136170Y706341D01*
X1136221Y706300D01*
X1136265Y706251D01*
X1136307Y706229D01*
X1136344Y706200D01*
X1136406Y706179D01*
X1136465Y706148D01*
X1136519Y706140D01*
X1136556Y706128D01*
X1136596Y706129D01*
X1136650Y706121D01*
X1139190Y706121D01*
X1139255Y706132D01*
G37*
G36*
X395035Y695972D02*
X395035Y695972D01*
X395101Y695974D01*
X395144Y695992D01*
X395191Y696000D01*
X395248Y696034D01*
X395308Y696059D01*
X395343Y696090D01*
X395384Y696115D01*
X395426Y696166D01*
X395474Y696210D01*
X395496Y696252D01*
X395525Y696289D01*
X395546Y696351D01*
X395577Y696410D01*
X395585Y696464D01*
X395597Y696501D01*
X395596Y696541D01*
X395604Y696595D01*
X395604Y700405D01*
X395593Y700470D01*
X395591Y700536D01*
X395573Y700579D01*
X395565Y700626D01*
X395531Y700683D01*
X395506Y700743D01*
X395475Y700778D01*
X395450Y700819D01*
X395399Y700861D01*
X395355Y700909D01*
X395313Y700931D01*
X395276Y700960D01*
X395214Y700981D01*
X395155Y701012D01*
X395101Y701020D01*
X395064Y701032D01*
X395024Y701031D01*
X394970Y701039D01*
X392430Y701039D01*
X392365Y701028D01*
X392299Y701026D01*
X392256Y701008D01*
X392209Y701000D01*
X392152Y700966D01*
X392092Y700941D01*
X392057Y700910D01*
X392016Y700885D01*
X391975Y700834D01*
X391926Y700790D01*
X391904Y700748D01*
X391875Y700711D01*
X391854Y700649D01*
X391823Y700590D01*
X391815Y700536D01*
X391803Y700499D01*
X391803Y700495D01*
X391803Y700494D01*
X391804Y700459D01*
X391796Y700405D01*
X391796Y696595D01*
X391807Y696530D01*
X391809Y696464D01*
X391827Y696421D01*
X391835Y696374D01*
X391869Y696317D01*
X391894Y696257D01*
X391925Y696222D01*
X391950Y696181D01*
X392001Y696140D01*
X392045Y696091D01*
X392087Y696069D01*
X392124Y696040D01*
X392186Y696019D01*
X392245Y695988D01*
X392299Y695980D01*
X392336Y695968D01*
X392376Y695969D01*
X392430Y695961D01*
X394970Y695961D01*
X395035Y695972D01*
G37*
G36*
X1139255Y695972D02*
X1139255Y695972D01*
X1139321Y695974D01*
X1139364Y695992D01*
X1139411Y696000D01*
X1139468Y696034D01*
X1139528Y696059D01*
X1139563Y696090D01*
X1139604Y696115D01*
X1139646Y696166D01*
X1139694Y696210D01*
X1139716Y696252D01*
X1139745Y696289D01*
X1139766Y696351D01*
X1139797Y696410D01*
X1139805Y696464D01*
X1139817Y696501D01*
X1139816Y696541D01*
X1139824Y696595D01*
X1139824Y700405D01*
X1139813Y700470D01*
X1139811Y700536D01*
X1139793Y700579D01*
X1139785Y700626D01*
X1139751Y700683D01*
X1139726Y700743D01*
X1139695Y700778D01*
X1139670Y700819D01*
X1139619Y700861D01*
X1139575Y700909D01*
X1139533Y700931D01*
X1139496Y700960D01*
X1139434Y700981D01*
X1139375Y701012D01*
X1139321Y701020D01*
X1139284Y701032D01*
X1139244Y701031D01*
X1139190Y701039D01*
X1136650Y701039D01*
X1136585Y701028D01*
X1136519Y701026D01*
X1136476Y701008D01*
X1136429Y701000D01*
X1136372Y700966D01*
X1136312Y700941D01*
X1136277Y700910D01*
X1136236Y700885D01*
X1136195Y700834D01*
X1136146Y700790D01*
X1136124Y700748D01*
X1136095Y700711D01*
X1136074Y700649D01*
X1136043Y700590D01*
X1136035Y700536D01*
X1136023Y700499D01*
X1136023Y700495D01*
X1136023Y700494D01*
X1136024Y700459D01*
X1136016Y700405D01*
X1136016Y696595D01*
X1136027Y696530D01*
X1136029Y696464D01*
X1136047Y696421D01*
X1136055Y696374D01*
X1136089Y696317D01*
X1136114Y696257D01*
X1136145Y696222D01*
X1136170Y696181D01*
X1136221Y696140D01*
X1136265Y696091D01*
X1136307Y696069D01*
X1136344Y696040D01*
X1136406Y696019D01*
X1136465Y695988D01*
X1136519Y695980D01*
X1136556Y695968D01*
X1136596Y695969D01*
X1136650Y695961D01*
X1139190Y695961D01*
X1139255Y695972D01*
G37*
G36*
X1139255Y116852D02*
X1139255Y116852D01*
X1139321Y116854D01*
X1139364Y116872D01*
X1139411Y116880D01*
X1139468Y116914D01*
X1139528Y116939D01*
X1139563Y116970D01*
X1139604Y116995D01*
X1139646Y117046D01*
X1139694Y117090D01*
X1139716Y117132D01*
X1139745Y117169D01*
X1139766Y117231D01*
X1139797Y117290D01*
X1139805Y117344D01*
X1139817Y117381D01*
X1139816Y117421D01*
X1139824Y117475D01*
X1139824Y121285D01*
X1139813Y121350D01*
X1139811Y121416D01*
X1139793Y121459D01*
X1139785Y121506D01*
X1139751Y121563D01*
X1139726Y121623D01*
X1139695Y121658D01*
X1139670Y121699D01*
X1139619Y121741D01*
X1139575Y121789D01*
X1139533Y121811D01*
X1139496Y121840D01*
X1139434Y121861D01*
X1139375Y121892D01*
X1139321Y121900D01*
X1139284Y121912D01*
X1139244Y121911D01*
X1139190Y121919D01*
X1136650Y121919D01*
X1136585Y121908D01*
X1136519Y121906D01*
X1136476Y121888D01*
X1136429Y121880D01*
X1136372Y121846D01*
X1136312Y121821D01*
X1136277Y121790D01*
X1136236Y121765D01*
X1136195Y121714D01*
X1136146Y121670D01*
X1136124Y121628D01*
X1136095Y121591D01*
X1136074Y121529D01*
X1136043Y121470D01*
X1136035Y121416D01*
X1136023Y121379D01*
X1136023Y121375D01*
X1136023Y121374D01*
X1136024Y121339D01*
X1136016Y121285D01*
X1136016Y117475D01*
X1136027Y117410D01*
X1136029Y117344D01*
X1136047Y117301D01*
X1136055Y117254D01*
X1136089Y117197D01*
X1136114Y117137D01*
X1136145Y117102D01*
X1136170Y117061D01*
X1136221Y117020D01*
X1136265Y116971D01*
X1136307Y116949D01*
X1136344Y116920D01*
X1136406Y116899D01*
X1136465Y116868D01*
X1136519Y116860D01*
X1136556Y116848D01*
X1136596Y116849D01*
X1136650Y116841D01*
X1139190Y116841D01*
X1139255Y116852D01*
G37*
G36*
X395035Y116852D02*
X395035Y116852D01*
X395101Y116854D01*
X395144Y116872D01*
X395191Y116880D01*
X395248Y116914D01*
X395308Y116939D01*
X395343Y116970D01*
X395384Y116995D01*
X395426Y117046D01*
X395474Y117090D01*
X395496Y117132D01*
X395525Y117169D01*
X395546Y117231D01*
X395577Y117290D01*
X395585Y117344D01*
X395597Y117381D01*
X395596Y117421D01*
X395604Y117475D01*
X395604Y121285D01*
X395593Y121350D01*
X395591Y121416D01*
X395573Y121459D01*
X395565Y121506D01*
X395531Y121563D01*
X395506Y121623D01*
X395475Y121658D01*
X395450Y121699D01*
X395399Y121741D01*
X395355Y121789D01*
X395313Y121811D01*
X395276Y121840D01*
X395214Y121861D01*
X395155Y121892D01*
X395101Y121900D01*
X395064Y121912D01*
X395024Y121911D01*
X394970Y121919D01*
X392430Y121919D01*
X392365Y121908D01*
X392299Y121906D01*
X392256Y121888D01*
X392209Y121880D01*
X392152Y121846D01*
X392092Y121821D01*
X392057Y121790D01*
X392016Y121765D01*
X391975Y121714D01*
X391926Y121670D01*
X391904Y121628D01*
X391875Y121591D01*
X391854Y121529D01*
X391823Y121470D01*
X391815Y121416D01*
X391803Y121379D01*
X391803Y121375D01*
X391803Y121374D01*
X391804Y121339D01*
X391796Y121285D01*
X391796Y117475D01*
X391807Y117410D01*
X391809Y117344D01*
X391827Y117301D01*
X391835Y117254D01*
X391869Y117197D01*
X391894Y117137D01*
X391925Y117102D01*
X391950Y117061D01*
X392001Y117020D01*
X392045Y116971D01*
X392087Y116949D01*
X392124Y116920D01*
X392186Y116899D01*
X392245Y116868D01*
X392299Y116860D01*
X392336Y116848D01*
X392376Y116849D01*
X392430Y116841D01*
X394970Y116841D01*
X395035Y116852D01*
G37*
G36*
X1139255Y106692D02*
X1139255Y106692D01*
X1139321Y106694D01*
X1139364Y106712D01*
X1139411Y106720D01*
X1139468Y106754D01*
X1139528Y106779D01*
X1139563Y106810D01*
X1139604Y106835D01*
X1139646Y106886D01*
X1139694Y106930D01*
X1139716Y106972D01*
X1139745Y107009D01*
X1139766Y107071D01*
X1139797Y107130D01*
X1139805Y107184D01*
X1139817Y107221D01*
X1139816Y107261D01*
X1139824Y107315D01*
X1139824Y111125D01*
X1139813Y111190D01*
X1139811Y111256D01*
X1139793Y111299D01*
X1139785Y111346D01*
X1139751Y111403D01*
X1139726Y111463D01*
X1139695Y111498D01*
X1139670Y111539D01*
X1139619Y111581D01*
X1139575Y111629D01*
X1139533Y111651D01*
X1139496Y111680D01*
X1139434Y111701D01*
X1139375Y111732D01*
X1139321Y111740D01*
X1139284Y111752D01*
X1139244Y111751D01*
X1139190Y111759D01*
X1136650Y111759D01*
X1136585Y111748D01*
X1136519Y111746D01*
X1136476Y111728D01*
X1136429Y111720D01*
X1136372Y111686D01*
X1136312Y111661D01*
X1136277Y111630D01*
X1136236Y111605D01*
X1136195Y111554D01*
X1136146Y111510D01*
X1136124Y111468D01*
X1136095Y111431D01*
X1136074Y111369D01*
X1136043Y111310D01*
X1136035Y111256D01*
X1136023Y111219D01*
X1136023Y111215D01*
X1136023Y111214D01*
X1136024Y111179D01*
X1136016Y111125D01*
X1136016Y107315D01*
X1136027Y107250D01*
X1136029Y107184D01*
X1136047Y107141D01*
X1136055Y107094D01*
X1136089Y107037D01*
X1136114Y106977D01*
X1136145Y106942D01*
X1136170Y106901D01*
X1136221Y106860D01*
X1136265Y106811D01*
X1136307Y106789D01*
X1136344Y106760D01*
X1136406Y106739D01*
X1136465Y106708D01*
X1136519Y106700D01*
X1136556Y106688D01*
X1136596Y106689D01*
X1136650Y106681D01*
X1139190Y106681D01*
X1139255Y106692D01*
G37*
G36*
X395035Y106692D02*
X395035Y106692D01*
X395101Y106694D01*
X395144Y106712D01*
X395191Y106720D01*
X395248Y106754D01*
X395308Y106779D01*
X395343Y106810D01*
X395384Y106835D01*
X395426Y106886D01*
X395474Y106930D01*
X395496Y106972D01*
X395525Y107009D01*
X395546Y107071D01*
X395577Y107130D01*
X395585Y107184D01*
X395597Y107221D01*
X395596Y107261D01*
X395604Y107315D01*
X395604Y111125D01*
X395593Y111190D01*
X395591Y111256D01*
X395573Y111299D01*
X395565Y111346D01*
X395531Y111403D01*
X395506Y111463D01*
X395475Y111498D01*
X395450Y111539D01*
X395399Y111581D01*
X395355Y111629D01*
X395313Y111651D01*
X395276Y111680D01*
X395214Y111701D01*
X395155Y111732D01*
X395101Y111740D01*
X395064Y111752D01*
X395024Y111751D01*
X394970Y111759D01*
X392430Y111759D01*
X392365Y111748D01*
X392299Y111746D01*
X392256Y111728D01*
X392209Y111720D01*
X392152Y111686D01*
X392092Y111661D01*
X392057Y111630D01*
X392016Y111605D01*
X391975Y111554D01*
X391926Y111510D01*
X391904Y111468D01*
X391875Y111431D01*
X391854Y111369D01*
X391823Y111310D01*
X391815Y111256D01*
X391803Y111219D01*
X391803Y111215D01*
X391803Y111214D01*
X391804Y111179D01*
X391796Y111125D01*
X391796Y107315D01*
X391807Y107250D01*
X391809Y107184D01*
X391827Y107141D01*
X391835Y107094D01*
X391869Y107037D01*
X391894Y106977D01*
X391925Y106942D01*
X391950Y106901D01*
X392001Y106860D01*
X392045Y106811D01*
X392087Y106789D01*
X392124Y106760D01*
X392186Y106739D01*
X392245Y106708D01*
X392299Y106700D01*
X392336Y106688D01*
X392376Y106689D01*
X392430Y106681D01*
X394970Y106681D01*
X395035Y106692D01*
G37*
G36*
X103570Y879487D02*
X103570Y879487D01*
X103636Y879489D01*
X103679Y879507D01*
X103726Y879515D01*
X103783Y879549D01*
X103843Y879574D01*
X103878Y879605D01*
X103919Y879630D01*
X103961Y879681D01*
X104009Y879725D01*
X104031Y879767D01*
X104060Y879804D01*
X104081Y879866D01*
X104112Y879925D01*
X104120Y879979D01*
X104132Y880016D01*
X104131Y880056D01*
X104139Y880110D01*
X104139Y882650D01*
X104128Y882715D01*
X104126Y882781D01*
X104108Y882824D01*
X104100Y882871D01*
X104066Y882928D01*
X104041Y882988D01*
X104010Y883023D01*
X103985Y883064D01*
X103934Y883106D01*
X103890Y883154D01*
X103848Y883176D01*
X103811Y883205D01*
X103749Y883226D01*
X103690Y883257D01*
X103636Y883265D01*
X103599Y883277D01*
X103559Y883276D01*
X103505Y883284D01*
X99695Y883284D01*
X99630Y883273D01*
X99564Y883271D01*
X99521Y883253D01*
X99474Y883245D01*
X99417Y883211D01*
X99357Y883186D01*
X99322Y883155D01*
X99281Y883130D01*
X99240Y883079D01*
X99191Y883035D01*
X99169Y882993D01*
X99140Y882956D01*
X99119Y882894D01*
X99088Y882835D01*
X99080Y882781D01*
X99068Y882744D01*
X99068Y882741D01*
X99069Y882704D01*
X99061Y882650D01*
X99061Y880110D01*
X99072Y880045D01*
X99074Y879979D01*
X99092Y879936D01*
X99100Y879889D01*
X99134Y879832D01*
X99159Y879772D01*
X99190Y879737D01*
X99215Y879696D01*
X99266Y879655D01*
X99310Y879606D01*
X99352Y879584D01*
X99389Y879555D01*
X99451Y879534D01*
X99510Y879503D01*
X99564Y879495D01*
X99601Y879483D01*
X99641Y879484D01*
X99695Y879476D01*
X103505Y879476D01*
X103570Y879487D01*
G37*
G36*
X847790Y1095387D02*
X847790Y1095387D01*
X847856Y1095389D01*
X847899Y1095407D01*
X847946Y1095415D01*
X848003Y1095449D01*
X848063Y1095474D01*
X848098Y1095505D01*
X848139Y1095530D01*
X848181Y1095581D01*
X848229Y1095625D01*
X848251Y1095667D01*
X848280Y1095704D01*
X848301Y1095766D01*
X848332Y1095825D01*
X848340Y1095879D01*
X848352Y1095916D01*
X848351Y1095956D01*
X848359Y1096010D01*
X848359Y1098550D01*
X848348Y1098615D01*
X848346Y1098681D01*
X848328Y1098724D01*
X848320Y1098771D01*
X848286Y1098828D01*
X848261Y1098888D01*
X848230Y1098923D01*
X848205Y1098964D01*
X848154Y1099006D01*
X848110Y1099054D01*
X848068Y1099076D01*
X848031Y1099105D01*
X847969Y1099126D01*
X847910Y1099157D01*
X847856Y1099165D01*
X847819Y1099177D01*
X847779Y1099176D01*
X847725Y1099184D01*
X843915Y1099184D01*
X843850Y1099173D01*
X843784Y1099171D01*
X843741Y1099153D01*
X843694Y1099145D01*
X843637Y1099111D01*
X843577Y1099086D01*
X843542Y1099055D01*
X843501Y1099030D01*
X843460Y1098979D01*
X843411Y1098935D01*
X843389Y1098893D01*
X843360Y1098856D01*
X843339Y1098794D01*
X843308Y1098735D01*
X843300Y1098681D01*
X843288Y1098644D01*
X843288Y1098641D01*
X843289Y1098604D01*
X843281Y1098550D01*
X843281Y1096010D01*
X843292Y1095945D01*
X843294Y1095879D01*
X843312Y1095836D01*
X843320Y1095789D01*
X843354Y1095732D01*
X843379Y1095672D01*
X843410Y1095637D01*
X843435Y1095596D01*
X843486Y1095555D01*
X843530Y1095506D01*
X843572Y1095484D01*
X843609Y1095455D01*
X843671Y1095434D01*
X843730Y1095403D01*
X843784Y1095395D01*
X843821Y1095383D01*
X843861Y1095384D01*
X843915Y1095376D01*
X847725Y1095376D01*
X847790Y1095387D01*
G37*
G36*
X847790Y506107D02*
X847790Y506107D01*
X847856Y506109D01*
X847899Y506127D01*
X847946Y506135D01*
X848003Y506169D01*
X848063Y506194D01*
X848098Y506225D01*
X848139Y506250D01*
X848181Y506301D01*
X848229Y506345D01*
X848251Y506387D01*
X848280Y506424D01*
X848301Y506486D01*
X848332Y506545D01*
X848340Y506599D01*
X848352Y506636D01*
X848351Y506676D01*
X848359Y506730D01*
X848359Y509270D01*
X848348Y509335D01*
X848346Y509401D01*
X848328Y509444D01*
X848320Y509491D01*
X848286Y509548D01*
X848261Y509608D01*
X848230Y509643D01*
X848205Y509684D01*
X848154Y509726D01*
X848110Y509774D01*
X848068Y509796D01*
X848031Y509825D01*
X847969Y509846D01*
X847910Y509877D01*
X847856Y509885D01*
X847819Y509897D01*
X847779Y509896D01*
X847725Y509904D01*
X843915Y509904D01*
X843850Y509893D01*
X843784Y509891D01*
X843741Y509873D01*
X843694Y509865D01*
X843637Y509831D01*
X843577Y509806D01*
X843542Y509775D01*
X843501Y509750D01*
X843460Y509699D01*
X843411Y509655D01*
X843389Y509613D01*
X843360Y509576D01*
X843339Y509514D01*
X843308Y509455D01*
X843300Y509401D01*
X843288Y509364D01*
X843288Y509361D01*
X843289Y509324D01*
X843281Y509270D01*
X843281Y506730D01*
X843292Y506665D01*
X843294Y506599D01*
X843312Y506556D01*
X843320Y506509D01*
X843354Y506452D01*
X843379Y506392D01*
X843410Y506357D01*
X843435Y506316D01*
X843486Y506275D01*
X843530Y506226D01*
X843572Y506204D01*
X843609Y506175D01*
X843671Y506154D01*
X843730Y506123D01*
X843784Y506115D01*
X843821Y506103D01*
X843861Y506104D01*
X843915Y506096D01*
X847725Y506096D01*
X847790Y506107D01*
G37*
G36*
X1076390Y455307D02*
X1076390Y455307D01*
X1076456Y455309D01*
X1076499Y455327D01*
X1076546Y455335D01*
X1076603Y455369D01*
X1076663Y455394D01*
X1076698Y455425D01*
X1076739Y455450D01*
X1076781Y455501D01*
X1076829Y455545D01*
X1076851Y455587D01*
X1076880Y455624D01*
X1076901Y455686D01*
X1076932Y455745D01*
X1076940Y455799D01*
X1076952Y455836D01*
X1076951Y455876D01*
X1076959Y455930D01*
X1076959Y458470D01*
X1076948Y458535D01*
X1076946Y458601D01*
X1076928Y458644D01*
X1076920Y458691D01*
X1076886Y458748D01*
X1076861Y458808D01*
X1076830Y458843D01*
X1076805Y458884D01*
X1076754Y458926D01*
X1076710Y458974D01*
X1076668Y458996D01*
X1076631Y459025D01*
X1076569Y459046D01*
X1076510Y459077D01*
X1076456Y459085D01*
X1076419Y459097D01*
X1076379Y459096D01*
X1076325Y459104D01*
X1072515Y459104D01*
X1072450Y459093D01*
X1072384Y459091D01*
X1072341Y459073D01*
X1072294Y459065D01*
X1072237Y459031D01*
X1072177Y459006D01*
X1072142Y458975D01*
X1072101Y458950D01*
X1072060Y458899D01*
X1072011Y458855D01*
X1071989Y458813D01*
X1071960Y458776D01*
X1071939Y458714D01*
X1071908Y458655D01*
X1071900Y458601D01*
X1071888Y458564D01*
X1071888Y458561D01*
X1071889Y458524D01*
X1071881Y458470D01*
X1071881Y455930D01*
X1071892Y455865D01*
X1071894Y455799D01*
X1071912Y455756D01*
X1071920Y455709D01*
X1071954Y455652D01*
X1071979Y455592D01*
X1072010Y455557D01*
X1072035Y455516D01*
X1072086Y455475D01*
X1072130Y455426D01*
X1072172Y455404D01*
X1072209Y455375D01*
X1072271Y455354D01*
X1072330Y455323D01*
X1072384Y455315D01*
X1072421Y455303D01*
X1072461Y455304D01*
X1072515Y455296D01*
X1076325Y455296D01*
X1076390Y455307D01*
G37*
G36*
X332170Y455307D02*
X332170Y455307D01*
X332236Y455309D01*
X332279Y455327D01*
X332326Y455335D01*
X332383Y455369D01*
X332443Y455394D01*
X332478Y455425D01*
X332519Y455450D01*
X332561Y455501D01*
X332609Y455545D01*
X332631Y455587D01*
X332660Y455624D01*
X332681Y455686D01*
X332712Y455745D01*
X332720Y455799D01*
X332732Y455836D01*
X332731Y455876D01*
X332739Y455930D01*
X332739Y458470D01*
X332728Y458535D01*
X332726Y458601D01*
X332708Y458644D01*
X332700Y458691D01*
X332666Y458748D01*
X332641Y458808D01*
X332610Y458843D01*
X332585Y458884D01*
X332534Y458926D01*
X332490Y458974D01*
X332448Y458996D01*
X332411Y459025D01*
X332349Y459046D01*
X332290Y459077D01*
X332236Y459085D01*
X332199Y459097D01*
X332159Y459096D01*
X332105Y459104D01*
X328295Y459104D01*
X328230Y459093D01*
X328164Y459091D01*
X328121Y459073D01*
X328074Y459065D01*
X328017Y459031D01*
X327957Y459006D01*
X327922Y458975D01*
X327881Y458950D01*
X327840Y458899D01*
X327791Y458855D01*
X327769Y458813D01*
X327740Y458776D01*
X327719Y458714D01*
X327688Y458655D01*
X327680Y458601D01*
X327668Y458564D01*
X327668Y458561D01*
X327669Y458524D01*
X327661Y458470D01*
X327661Y455930D01*
X327672Y455865D01*
X327674Y455799D01*
X327692Y455756D01*
X327700Y455709D01*
X327734Y455652D01*
X327759Y455592D01*
X327790Y455557D01*
X327815Y455516D01*
X327866Y455475D01*
X327910Y455426D01*
X327952Y455404D01*
X327989Y455375D01*
X328051Y455354D01*
X328110Y455323D01*
X328164Y455315D01*
X328201Y455303D01*
X328241Y455304D01*
X328295Y455296D01*
X332105Y455296D01*
X332170Y455307D01*
G37*
G36*
X847790Y290207D02*
X847790Y290207D01*
X847856Y290209D01*
X847899Y290227D01*
X847946Y290235D01*
X848003Y290269D01*
X848063Y290294D01*
X848098Y290325D01*
X848139Y290350D01*
X848181Y290401D01*
X848229Y290445D01*
X848251Y290487D01*
X848280Y290524D01*
X848301Y290586D01*
X848332Y290645D01*
X848340Y290699D01*
X848352Y290736D01*
X848351Y290776D01*
X848359Y290830D01*
X848359Y293370D01*
X848348Y293435D01*
X848346Y293501D01*
X848328Y293544D01*
X848320Y293591D01*
X848286Y293648D01*
X848261Y293708D01*
X848230Y293743D01*
X848205Y293784D01*
X848154Y293826D01*
X848110Y293874D01*
X848068Y293896D01*
X848031Y293925D01*
X847969Y293946D01*
X847910Y293977D01*
X847856Y293985D01*
X847819Y293997D01*
X847779Y293996D01*
X847725Y294004D01*
X843915Y294004D01*
X843850Y293993D01*
X843784Y293991D01*
X843741Y293973D01*
X843694Y293965D01*
X843637Y293931D01*
X843577Y293906D01*
X843542Y293875D01*
X843501Y293850D01*
X843460Y293799D01*
X843411Y293755D01*
X843389Y293713D01*
X843360Y293676D01*
X843339Y293614D01*
X843308Y293555D01*
X843300Y293501D01*
X843288Y293464D01*
X843288Y293461D01*
X843289Y293424D01*
X843281Y293370D01*
X843281Y290830D01*
X843292Y290765D01*
X843294Y290699D01*
X843312Y290656D01*
X843320Y290609D01*
X843354Y290552D01*
X843379Y290492D01*
X843410Y290457D01*
X843435Y290416D01*
X843486Y290375D01*
X843530Y290326D01*
X843572Y290304D01*
X843609Y290275D01*
X843671Y290254D01*
X843730Y290223D01*
X843784Y290215D01*
X843821Y290203D01*
X843861Y290204D01*
X843915Y290196D01*
X847725Y290196D01*
X847790Y290207D01*
G37*
G36*
X103570Y506107D02*
X103570Y506107D01*
X103636Y506109D01*
X103679Y506127D01*
X103726Y506135D01*
X103783Y506169D01*
X103843Y506194D01*
X103878Y506225D01*
X103919Y506250D01*
X103961Y506301D01*
X104009Y506345D01*
X104031Y506387D01*
X104060Y506424D01*
X104081Y506486D01*
X104112Y506545D01*
X104120Y506599D01*
X104132Y506636D01*
X104131Y506676D01*
X104139Y506730D01*
X104139Y509270D01*
X104128Y509335D01*
X104126Y509401D01*
X104108Y509444D01*
X104100Y509491D01*
X104066Y509548D01*
X104041Y509608D01*
X104010Y509643D01*
X103985Y509684D01*
X103934Y509726D01*
X103890Y509774D01*
X103848Y509796D01*
X103811Y509825D01*
X103749Y509846D01*
X103690Y509877D01*
X103636Y509885D01*
X103599Y509897D01*
X103559Y509896D01*
X103505Y509904D01*
X99695Y509904D01*
X99630Y509893D01*
X99564Y509891D01*
X99521Y509873D01*
X99474Y509865D01*
X99417Y509831D01*
X99357Y509806D01*
X99322Y509775D01*
X99281Y509750D01*
X99240Y509699D01*
X99191Y509655D01*
X99169Y509613D01*
X99140Y509576D01*
X99119Y509514D01*
X99088Y509455D01*
X99080Y509401D01*
X99068Y509364D01*
X99068Y509361D01*
X99069Y509324D01*
X99061Y509270D01*
X99061Y506730D01*
X99072Y506665D01*
X99074Y506599D01*
X99092Y506556D01*
X99100Y506509D01*
X99134Y506452D01*
X99159Y506392D01*
X99190Y506357D01*
X99215Y506316D01*
X99266Y506275D01*
X99310Y506226D01*
X99352Y506204D01*
X99389Y506175D01*
X99451Y506154D01*
X99510Y506123D01*
X99564Y506115D01*
X99601Y506103D01*
X99641Y506104D01*
X99695Y506096D01*
X103505Y506096D01*
X103570Y506107D01*
G37*
G36*
X103570Y290207D02*
X103570Y290207D01*
X103636Y290209D01*
X103679Y290227D01*
X103726Y290235D01*
X103783Y290269D01*
X103843Y290294D01*
X103878Y290325D01*
X103919Y290350D01*
X103961Y290401D01*
X104009Y290445D01*
X104031Y290487D01*
X104060Y290524D01*
X104081Y290586D01*
X104112Y290645D01*
X104120Y290699D01*
X104132Y290736D01*
X104131Y290776D01*
X104139Y290830D01*
X104139Y293370D01*
X104128Y293435D01*
X104126Y293501D01*
X104108Y293544D01*
X104100Y293591D01*
X104066Y293648D01*
X104041Y293708D01*
X104010Y293743D01*
X103985Y293784D01*
X103934Y293826D01*
X103890Y293874D01*
X103848Y293896D01*
X103811Y293925D01*
X103749Y293946D01*
X103690Y293977D01*
X103636Y293985D01*
X103599Y293997D01*
X103559Y293996D01*
X103505Y294004D01*
X99695Y294004D01*
X99630Y293993D01*
X99564Y293991D01*
X99521Y293973D01*
X99474Y293965D01*
X99417Y293931D01*
X99357Y293906D01*
X99322Y293875D01*
X99281Y293850D01*
X99240Y293799D01*
X99191Y293755D01*
X99169Y293713D01*
X99140Y293676D01*
X99119Y293614D01*
X99088Y293555D01*
X99080Y293501D01*
X99068Y293464D01*
X99068Y293461D01*
X99069Y293424D01*
X99061Y293370D01*
X99061Y290830D01*
X99072Y290765D01*
X99074Y290699D01*
X99092Y290656D01*
X99100Y290609D01*
X99134Y290552D01*
X99159Y290492D01*
X99190Y290457D01*
X99215Y290416D01*
X99266Y290375D01*
X99310Y290326D01*
X99352Y290304D01*
X99389Y290275D01*
X99451Y290254D01*
X99510Y290223D01*
X99564Y290215D01*
X99601Y290203D01*
X99641Y290204D01*
X99695Y290196D01*
X103505Y290196D01*
X103570Y290207D01*
G37*
G36*
X103570Y1095387D02*
X103570Y1095387D01*
X103636Y1095389D01*
X103679Y1095407D01*
X103726Y1095415D01*
X103783Y1095449D01*
X103843Y1095474D01*
X103878Y1095505D01*
X103919Y1095530D01*
X103961Y1095581D01*
X104009Y1095625D01*
X104031Y1095667D01*
X104060Y1095704D01*
X104081Y1095766D01*
X104112Y1095825D01*
X104120Y1095879D01*
X104132Y1095916D01*
X104131Y1095956D01*
X104139Y1096010D01*
X104139Y1098550D01*
X104128Y1098615D01*
X104126Y1098681D01*
X104108Y1098724D01*
X104100Y1098771D01*
X104066Y1098828D01*
X104041Y1098888D01*
X104010Y1098923D01*
X103985Y1098964D01*
X103934Y1099006D01*
X103890Y1099054D01*
X103848Y1099076D01*
X103811Y1099105D01*
X103749Y1099126D01*
X103690Y1099157D01*
X103636Y1099165D01*
X103599Y1099177D01*
X103559Y1099176D01*
X103505Y1099184D01*
X99695Y1099184D01*
X99630Y1099173D01*
X99564Y1099171D01*
X99521Y1099153D01*
X99474Y1099145D01*
X99417Y1099111D01*
X99357Y1099086D01*
X99322Y1099055D01*
X99281Y1099030D01*
X99240Y1098979D01*
X99191Y1098935D01*
X99169Y1098893D01*
X99140Y1098856D01*
X99119Y1098794D01*
X99088Y1098735D01*
X99080Y1098681D01*
X99068Y1098644D01*
X99068Y1098641D01*
X99069Y1098604D01*
X99061Y1098550D01*
X99061Y1096010D01*
X99072Y1095945D01*
X99074Y1095879D01*
X99092Y1095836D01*
X99100Y1095789D01*
X99134Y1095732D01*
X99159Y1095672D01*
X99190Y1095637D01*
X99215Y1095596D01*
X99266Y1095555D01*
X99310Y1095506D01*
X99352Y1095484D01*
X99389Y1095455D01*
X99451Y1095434D01*
X99510Y1095403D01*
X99564Y1095395D01*
X99601Y1095383D01*
X99641Y1095384D01*
X99695Y1095376D01*
X103505Y1095376D01*
X103570Y1095387D01*
G37*
G36*
X1076390Y1044587D02*
X1076390Y1044587D01*
X1076456Y1044589D01*
X1076499Y1044607D01*
X1076546Y1044615D01*
X1076603Y1044649D01*
X1076663Y1044674D01*
X1076698Y1044705D01*
X1076739Y1044730D01*
X1076781Y1044781D01*
X1076829Y1044825D01*
X1076851Y1044867D01*
X1076880Y1044904D01*
X1076901Y1044966D01*
X1076932Y1045025D01*
X1076940Y1045079D01*
X1076952Y1045116D01*
X1076951Y1045156D01*
X1076959Y1045210D01*
X1076959Y1047750D01*
X1076948Y1047815D01*
X1076946Y1047881D01*
X1076928Y1047924D01*
X1076920Y1047971D01*
X1076886Y1048028D01*
X1076861Y1048088D01*
X1076830Y1048123D01*
X1076805Y1048164D01*
X1076754Y1048206D01*
X1076710Y1048254D01*
X1076668Y1048276D01*
X1076631Y1048305D01*
X1076569Y1048326D01*
X1076510Y1048357D01*
X1076456Y1048365D01*
X1076419Y1048377D01*
X1076379Y1048376D01*
X1076325Y1048384D01*
X1072515Y1048384D01*
X1072450Y1048373D01*
X1072384Y1048371D01*
X1072341Y1048353D01*
X1072294Y1048345D01*
X1072237Y1048311D01*
X1072177Y1048286D01*
X1072142Y1048255D01*
X1072101Y1048230D01*
X1072060Y1048179D01*
X1072011Y1048135D01*
X1071989Y1048093D01*
X1071960Y1048056D01*
X1071939Y1047994D01*
X1071908Y1047935D01*
X1071900Y1047881D01*
X1071888Y1047844D01*
X1071888Y1047841D01*
X1071889Y1047804D01*
X1071881Y1047750D01*
X1071881Y1045210D01*
X1071892Y1045145D01*
X1071894Y1045079D01*
X1071912Y1045036D01*
X1071920Y1044989D01*
X1071954Y1044932D01*
X1071979Y1044872D01*
X1072010Y1044837D01*
X1072035Y1044796D01*
X1072086Y1044755D01*
X1072130Y1044706D01*
X1072172Y1044684D01*
X1072209Y1044655D01*
X1072271Y1044634D01*
X1072330Y1044603D01*
X1072384Y1044595D01*
X1072421Y1044583D01*
X1072461Y1044584D01*
X1072515Y1044576D01*
X1076325Y1044576D01*
X1076390Y1044587D01*
G37*
G36*
X332170Y1044587D02*
X332170Y1044587D01*
X332236Y1044589D01*
X332279Y1044607D01*
X332326Y1044615D01*
X332383Y1044649D01*
X332443Y1044674D01*
X332478Y1044705D01*
X332519Y1044730D01*
X332561Y1044781D01*
X332609Y1044825D01*
X332631Y1044867D01*
X332660Y1044904D01*
X332681Y1044966D01*
X332712Y1045025D01*
X332720Y1045079D01*
X332732Y1045116D01*
X332731Y1045156D01*
X332739Y1045210D01*
X332739Y1047750D01*
X332728Y1047815D01*
X332726Y1047881D01*
X332708Y1047924D01*
X332700Y1047971D01*
X332666Y1048028D01*
X332641Y1048088D01*
X332610Y1048123D01*
X332585Y1048164D01*
X332534Y1048206D01*
X332490Y1048254D01*
X332448Y1048276D01*
X332411Y1048305D01*
X332349Y1048326D01*
X332290Y1048357D01*
X332236Y1048365D01*
X332199Y1048377D01*
X332159Y1048376D01*
X332105Y1048384D01*
X328295Y1048384D01*
X328230Y1048373D01*
X328164Y1048371D01*
X328121Y1048353D01*
X328074Y1048345D01*
X328017Y1048311D01*
X327957Y1048286D01*
X327922Y1048255D01*
X327881Y1048230D01*
X327840Y1048179D01*
X327791Y1048135D01*
X327769Y1048093D01*
X327740Y1048056D01*
X327719Y1047994D01*
X327688Y1047935D01*
X327680Y1047881D01*
X327668Y1047844D01*
X327668Y1047841D01*
X327669Y1047804D01*
X327661Y1047750D01*
X327661Y1045210D01*
X327672Y1045145D01*
X327674Y1045079D01*
X327692Y1045036D01*
X327700Y1044989D01*
X327734Y1044932D01*
X327759Y1044872D01*
X327790Y1044837D01*
X327815Y1044796D01*
X327866Y1044755D01*
X327910Y1044706D01*
X327952Y1044684D01*
X327989Y1044655D01*
X328051Y1044634D01*
X328110Y1044603D01*
X328164Y1044595D01*
X328201Y1044583D01*
X328241Y1044584D01*
X328295Y1044576D01*
X332105Y1044576D01*
X332170Y1044587D01*
G37*
G36*
X847790Y879487D02*
X847790Y879487D01*
X847856Y879489D01*
X847899Y879507D01*
X847946Y879515D01*
X848003Y879549D01*
X848063Y879574D01*
X848098Y879605D01*
X848139Y879630D01*
X848181Y879681D01*
X848229Y879725D01*
X848251Y879767D01*
X848280Y879804D01*
X848301Y879866D01*
X848332Y879925D01*
X848340Y879979D01*
X848352Y880016D01*
X848351Y880056D01*
X848359Y880110D01*
X848359Y882650D01*
X848348Y882715D01*
X848346Y882781D01*
X848328Y882824D01*
X848320Y882871D01*
X848286Y882928D01*
X848261Y882988D01*
X848230Y883023D01*
X848205Y883064D01*
X848154Y883106D01*
X848110Y883154D01*
X848068Y883176D01*
X848031Y883205D01*
X847969Y883226D01*
X847910Y883257D01*
X847856Y883265D01*
X847819Y883277D01*
X847779Y883276D01*
X847725Y883284D01*
X843915Y883284D01*
X843850Y883273D01*
X843784Y883271D01*
X843741Y883253D01*
X843694Y883245D01*
X843637Y883211D01*
X843577Y883186D01*
X843542Y883155D01*
X843501Y883130D01*
X843460Y883079D01*
X843411Y883035D01*
X843389Y882993D01*
X843360Y882956D01*
X843339Y882894D01*
X843308Y882835D01*
X843300Y882781D01*
X843288Y882744D01*
X843288Y882741D01*
X843289Y882704D01*
X843281Y882650D01*
X843281Y880110D01*
X843292Y880045D01*
X843294Y879979D01*
X843312Y879936D01*
X843320Y879889D01*
X843354Y879832D01*
X843379Y879772D01*
X843410Y879737D01*
X843435Y879696D01*
X843486Y879655D01*
X843530Y879606D01*
X843572Y879584D01*
X843609Y879555D01*
X843671Y879534D01*
X843730Y879503D01*
X843784Y879495D01*
X843821Y879483D01*
X843861Y879484D01*
X843915Y879476D01*
X847725Y879476D01*
X847790Y879487D01*
G37*
D10*
X60100Y94100D03*
X60100Y99100D03*
D11*
X60100Y69350D03*
X60100Y77100D03*
D10*
X60100Y84100D03*
X60100Y89100D03*
X60100Y109100D03*
X60100Y104100D03*
D11*
X60100Y133850D03*
X60100Y126100D03*
D10*
X60100Y119100D03*
X60100Y114100D03*
D12*
X49050Y130500D03*
X49050Y72700D03*
D13*
X76200Y135500D03*
X76200Y118500D03*
X76200Y67700D03*
X76200Y84700D03*
D14*
X91850Y87850D03*
X98350Y87850D03*
X104850Y87850D03*
X111350Y87850D03*
X111350Y115350D03*
X104850Y115350D03*
X98350Y115350D03*
X91850Y115350D03*
D15*
X101600Y101600D03*
D16*
X93100Y139700D03*
X110100Y139700D03*
D17*
X7620Y7620D03*
X665480Y577850D03*
D18*
X647700Y558800D03*
X25400Y558800D03*
X647700Y25400D03*
X25400Y25400D03*
D16*
X46600Y317500D03*
X29600Y317500D03*
D19*
X107400Y247300D03*
D20*
X31750Y229800D03*
X31750Y252800D03*
D13*
X50800Y249800D03*
X50800Y232800D03*
D20*
X12700Y229800D03*
X12700Y252800D03*
D21*
X543500Y14050D03*
X599500Y14050D03*
D22*
X556500Y50800D03*
X566500Y50800D03*
X576500Y50800D03*
X586500Y50800D03*
D23*
X393700Y103886D03*
X393700Y114300D03*
X393700Y124714D03*
D16*
X402200Y88900D03*
X385200Y88900D03*
X402200Y139700D03*
X385200Y139700D03*
D24*
X146050Y22860D03*
X146050Y78740D03*
X184150Y22860D03*
X184150Y78740D03*
D16*
X93100Y154940D03*
X110100Y154940D03*
D25*
X34036Y203200D03*
X42164Y203200D03*
D26*
X23100Y177800D03*
X53100Y177800D03*
D27*
X102900Y177800D03*
X74900Y177800D03*
D13*
X156210Y143900D03*
X156210Y160900D03*
X133350Y160900D03*
X133350Y143900D03*
D25*
X101600Y12700D03*
X111760Y12700D03*
D28*
X93980Y12700D03*
X119380Y12700D03*
D29*
X158750Y190500D03*
X158750Y203200D03*
X158750Y215900D03*
X158750Y228600D03*
X158750Y177800D03*
X146050Y190500D03*
X146050Y203200D03*
X146050Y215900D03*
X146050Y228600D03*
X146050Y177800D03*
D24*
X209550Y22860D03*
X209550Y78740D03*
X247650Y22860D03*
X247650Y78740D03*
D28*
X190500Y571500D03*
X165100Y571500D03*
X139700Y571500D03*
X114300Y571500D03*
X88900Y571500D03*
D30*
X161100Y392400D03*
X161100Y449400D03*
D31*
X29600Y465400D03*
X19600Y333900D03*
D32*
X58100Y380500D03*
X62100Y391500D03*
X58100Y402500D03*
X56100Y413500D03*
X58100Y424500D03*
X56100Y435500D03*
X58100Y446500D03*
X58100Y457500D03*
D28*
X406400Y12700D03*
X381000Y12700D03*
X355600Y12700D03*
X330200Y12700D03*
X304800Y12700D03*
X279400Y12700D03*
X431800Y12700D03*
X457200Y12700D03*
X482600Y12700D03*
X508000Y12700D03*
D33*
X442000Y163000D03*
D13*
X127000Y110100D03*
X127000Y93100D03*
D34*
X140900Y101600D03*
X163900Y101600D03*
D35*
X391250Y390750D03*
X391250Y384250D03*
X391250Y377750D03*
X391250Y371250D03*
X370750Y371250D03*
X370750Y377750D03*
X370750Y384250D03*
X370750Y390750D03*
D16*
X309000Y400050D03*
X326000Y400050D03*
X309000Y381000D03*
X326000Y381000D03*
D36*
X282600Y460700D03*
X301600Y460700D03*
X282600Y453700D03*
D37*
X301100Y453700D03*
D38*
X96393Y508000D03*
X106807Y508000D03*
D16*
X55000Y495300D03*
X72000Y495300D03*
D39*
X68780Y504510D02*
X68780Y511490D01*
X75760Y511490D01*
X75760Y504510D01*
X68780Y504510D01*
X68780Y509310D02*
X75760Y509310D01*
X51240Y511490D02*
X51240Y504510D01*
X51240Y511490D02*
X58220Y511490D01*
X58220Y504510D01*
X51240Y504510D01*
X51240Y509310D02*
X58220Y509310D01*
D16*
X300600Y482600D03*
X283600Y482600D03*
D40*
X584200Y494500D03*
X584200Y444500D03*
X584200Y394500D03*
D28*
X533400Y107950D03*
X558800Y120650D03*
X533400Y133350D03*
X558800Y146050D03*
X533400Y158750D03*
X558800Y171450D03*
D41*
X622300Y88900D03*
X622300Y190500D03*
D28*
X533400Y260350D03*
X558800Y273050D03*
X533400Y285750D03*
X558800Y298450D03*
X533400Y311150D03*
X558800Y323850D03*
D41*
X622300Y241300D03*
X622300Y342900D03*
D42*
X431734Y469966D03*
D43*
X414394Y479726D02*
X410894Y479726D01*
X410894Y473226D02*
X414394Y473226D01*
X414394Y466726D02*
X410894Y466726D01*
X410894Y460206D02*
X414394Y460206D01*
X421984Y452566D02*
X421984Y449066D01*
X428484Y449046D02*
X428484Y452546D01*
X434984Y452566D02*
X434984Y449066D01*
X441484Y449066D02*
X441484Y452566D01*
X421984Y487366D02*
X421984Y490866D01*
X428484Y490846D02*
X428484Y487346D01*
X434984Y487366D02*
X434984Y490866D01*
X441484Y490866D02*
X441484Y487366D01*
X449124Y479716D02*
X452624Y479716D01*
X452624Y473216D02*
X449124Y473216D01*
X449124Y466716D02*
X452624Y466716D01*
X452624Y460216D02*
X449124Y460216D01*
D16*
X389500Y482600D03*
X372500Y482600D03*
X474100Y495300D03*
X491100Y495300D03*
X433950Y514350D03*
X416950Y514350D03*
X416950Y530860D03*
X433950Y530860D03*
X389500Y457200D03*
X372500Y457200D03*
D44*
X471950Y558800D03*
X378950Y558800D03*
D39*
X68780Y295590D02*
X68780Y288610D01*
X68780Y295590D02*
X75760Y295590D01*
X75760Y288610D01*
X68780Y288610D01*
X68780Y293410D02*
X75760Y293410D01*
X51240Y295590D02*
X51240Y288610D01*
X51240Y295590D02*
X58220Y295590D01*
X58220Y288610D01*
X51240Y288610D01*
X51240Y293410D02*
X58220Y293410D01*
D16*
X55000Y279400D03*
X72000Y279400D03*
D38*
X96393Y292100D03*
X106807Y292100D03*
D16*
X326000Y361950D03*
X309000Y361950D03*
X436000Y381000D03*
X453000Y381000D03*
X93100Y69850D03*
X110100Y69850D03*
X93100Y50800D03*
X110100Y50800D03*
X93100Y31750D03*
X110100Y31750D03*
D13*
X469900Y249800D03*
X469900Y232800D03*
D20*
X488950Y90100D03*
X488950Y113100D03*
X490220Y172650D03*
X490220Y195650D03*
X463550Y280600D03*
X463550Y303600D03*
X463550Y318700D03*
X463550Y341700D03*
X450850Y229800D03*
X450850Y252800D03*
X488950Y252800D03*
X488950Y229800D03*
D13*
X508000Y110100D03*
X508000Y93100D03*
X482600Y300600D03*
X482600Y283600D03*
X482600Y338700D03*
X482600Y321700D03*
X508000Y192650D03*
X508000Y175650D03*
D45*
X241300Y103200D03*
D46*
X241300Y303200D03*
D47*
X188550Y110700D03*
D48*
X196300Y99700D03*
X196300Y306700D03*
D47*
X264050Y113200D03*
X188550Y115700D03*
X264050Y118200D03*
X188550Y120700D03*
X264050Y123200D03*
X188550Y125700D03*
X264050Y128200D03*
X188550Y130700D03*
X264050Y133200D03*
X188550Y135700D03*
X264050Y138200D03*
X188550Y140700D03*
X264050Y143200D03*
X188550Y145700D03*
X264050Y148200D03*
X188550Y150700D03*
X264050Y153200D03*
X188550Y155700D03*
X264050Y158200D03*
X188550Y160700D03*
X264050Y163200D03*
X188550Y165700D03*
X264050Y188200D03*
X188550Y190700D03*
X264050Y193200D03*
X188550Y195700D03*
X264050Y198200D03*
X188550Y200700D03*
X264050Y203200D03*
X188550Y205700D03*
X264050Y208200D03*
X188550Y210700D03*
X264050Y213200D03*
X188550Y215700D03*
X264050Y218200D03*
X188550Y220700D03*
X264050Y223200D03*
X188550Y225700D03*
X264050Y228200D03*
X188550Y230700D03*
X264050Y233200D03*
X188550Y235700D03*
X264050Y238200D03*
X188550Y240700D03*
X264050Y243200D03*
X188550Y245700D03*
X264050Y248200D03*
X188550Y250700D03*
X264050Y253200D03*
X188550Y255700D03*
X264050Y258200D03*
X188550Y260700D03*
X264050Y263200D03*
X188550Y265700D03*
X264050Y268200D03*
X188550Y270700D03*
X264050Y273200D03*
X188550Y275700D03*
X264050Y278200D03*
X188550Y280700D03*
X264050Y283200D03*
X188550Y285700D03*
X264050Y288200D03*
X188550Y290700D03*
X264050Y293200D03*
X188550Y295700D03*
D28*
X215900Y571500D03*
X241300Y571500D03*
X215900Y546100D03*
X241300Y546100D03*
D38*
X324993Y457200D03*
X335407Y457200D03*
D13*
X190500Y364100D03*
X190500Y347100D03*
D10*
X804320Y94100D03*
X804320Y99100D03*
D11*
X804320Y69350D03*
X804320Y77100D03*
D10*
X804320Y84100D03*
X804320Y89100D03*
X804320Y109100D03*
X804320Y104100D03*
D11*
X804320Y133850D03*
X804320Y126100D03*
D10*
X804320Y119100D03*
X804320Y114100D03*
D12*
X793270Y130500D03*
X793270Y72700D03*
D13*
X820420Y135500D03*
X820420Y118500D03*
X820420Y67700D03*
X820420Y84700D03*
D14*
X836070Y87850D03*
X842570Y87850D03*
X849070Y87850D03*
X855570Y87850D03*
X855570Y115350D03*
X849070Y115350D03*
X842570Y115350D03*
X836070Y115350D03*
D15*
X845820Y101600D03*
D16*
X837320Y139700D03*
X854320Y139700D03*
D17*
X751840Y7620D03*
X1409700Y577850D03*
D18*
X1391920Y558800D03*
X769620Y558800D03*
X1391920Y25400D03*
X769620Y25400D03*
D16*
X790820Y317500D03*
X773820Y317500D03*
D19*
X851620Y247300D03*
D20*
X775970Y229800D03*
X775970Y252800D03*
D13*
X795020Y249800D03*
X795020Y232800D03*
D20*
X756920Y229800D03*
X756920Y252800D03*
D21*
X1287720Y14050D03*
X1343720Y14050D03*
D22*
X1300720Y50800D03*
X1310720Y50800D03*
X1320720Y50800D03*
X1330720Y50800D03*
D23*
X1137920Y103886D03*
X1137920Y114300D03*
X1137920Y124714D03*
D16*
X1146420Y88900D03*
X1129420Y88900D03*
X1146420Y139700D03*
X1129420Y139700D03*
D24*
X890270Y22860D03*
X890270Y78740D03*
X928370Y22860D03*
X928370Y78740D03*
D16*
X837320Y154940D03*
X854320Y154940D03*
D25*
X778256Y203200D03*
X786384Y203200D03*
D26*
X767320Y177800D03*
X797320Y177800D03*
D27*
X847120Y177800D03*
X819120Y177800D03*
D13*
X900430Y143900D03*
X900430Y160900D03*
X877570Y160900D03*
X877570Y143900D03*
D25*
X845820Y12700D03*
X855980Y12700D03*
D28*
X838200Y12700D03*
X863600Y12700D03*
D29*
X902970Y190500D03*
X902970Y203200D03*
X902970Y215900D03*
X902970Y228600D03*
X902970Y177800D03*
X890270Y190500D03*
X890270Y203200D03*
X890270Y215900D03*
X890270Y228600D03*
X890270Y177800D03*
D24*
X953770Y22860D03*
X953770Y78740D03*
X991870Y22860D03*
X991870Y78740D03*
D28*
X934720Y571500D03*
X909320Y571500D03*
X883920Y571500D03*
X858520Y571500D03*
X833120Y571500D03*
D30*
X905320Y392400D03*
X905320Y449400D03*
D31*
X773820Y465400D03*
X763820Y333900D03*
D32*
X802320Y380500D03*
X806320Y391500D03*
X802320Y402500D03*
X800320Y413500D03*
X802320Y424500D03*
X800320Y435500D03*
X802320Y446500D03*
X802320Y457500D03*
D28*
X1150620Y12700D03*
X1125220Y12700D03*
X1099820Y12700D03*
X1074420Y12700D03*
X1049020Y12700D03*
X1023620Y12700D03*
X1176020Y12700D03*
X1201420Y12700D03*
X1226820Y12700D03*
X1252220Y12700D03*
D33*
X1186220Y163000D03*
D13*
X871220Y110100D03*
X871220Y93100D03*
D34*
X885120Y101600D03*
X908120Y101600D03*
D35*
X1135470Y390750D03*
X1135470Y384250D03*
X1135470Y377750D03*
X1135470Y371250D03*
X1114970Y371250D03*
X1114970Y377750D03*
X1114970Y384250D03*
X1114970Y390750D03*
D16*
X1053220Y400050D03*
X1070220Y400050D03*
X1053220Y381000D03*
X1070220Y381000D03*
D36*
X1026820Y460700D03*
X1045820Y460700D03*
X1026820Y453700D03*
D37*
X1045320Y453700D03*
D38*
X840613Y508000D03*
X851027Y508000D03*
D16*
X799220Y495300D03*
X816220Y495300D03*
D39*
X813000Y504510D02*
X813000Y511490D01*
X819980Y511490D01*
X819980Y504510D01*
X813000Y504510D01*
X813000Y509310D02*
X819980Y509310D01*
X795460Y511490D02*
X795460Y504510D01*
X795460Y511490D02*
X802440Y511490D01*
X802440Y504510D01*
X795460Y504510D01*
X795460Y509310D02*
X802440Y509310D01*
D16*
X1044820Y482600D03*
X1027820Y482600D03*
D40*
X1328420Y494500D03*
X1328420Y444500D03*
X1328420Y394500D03*
D28*
X1277620Y107950D03*
X1303020Y120650D03*
X1277620Y133350D03*
X1303020Y146050D03*
X1277620Y158750D03*
X1303020Y171450D03*
D41*
X1366520Y88900D03*
X1366520Y190500D03*
D28*
X1277620Y260350D03*
X1303020Y273050D03*
X1277620Y285750D03*
X1303020Y298450D03*
X1277620Y311150D03*
X1303020Y323850D03*
D41*
X1366520Y241300D03*
X1366520Y342900D03*
D42*
X1175954Y469966D03*
D43*
X1158614Y479726D02*
X1155114Y479726D01*
X1155114Y473226D02*
X1158614Y473226D01*
X1158614Y466726D02*
X1155114Y466726D01*
X1155114Y460206D02*
X1158614Y460206D01*
X1166204Y452566D02*
X1166204Y449066D01*
X1172704Y449046D02*
X1172704Y452546D01*
X1179204Y452566D02*
X1179204Y449066D01*
X1185704Y449066D02*
X1185704Y452566D01*
X1166204Y487366D02*
X1166204Y490866D01*
X1172704Y490846D02*
X1172704Y487346D01*
X1179204Y487366D02*
X1179204Y490866D01*
X1185704Y490866D02*
X1185704Y487366D01*
X1193344Y479716D02*
X1196844Y479716D01*
X1196844Y473216D02*
X1193344Y473216D01*
X1193344Y466716D02*
X1196844Y466716D01*
X1196844Y460216D02*
X1193344Y460216D01*
D16*
X1133720Y482600D03*
X1116720Y482600D03*
X1218320Y495300D03*
X1235320Y495300D03*
X1178170Y514350D03*
X1161170Y514350D03*
X1161170Y530860D03*
X1178170Y530860D03*
X1133720Y457200D03*
X1116720Y457200D03*
D44*
X1216170Y558800D03*
X1123170Y558800D03*
D39*
X813000Y295590D02*
X813000Y288610D01*
X813000Y295590D02*
X819980Y295590D01*
X819980Y288610D01*
X813000Y288610D01*
X813000Y293410D02*
X819980Y293410D01*
X795460Y295590D02*
X795460Y288610D01*
X795460Y295590D02*
X802440Y295590D01*
X802440Y288610D01*
X795460Y288610D01*
X795460Y293410D02*
X802440Y293410D01*
D16*
X799220Y279400D03*
X816220Y279400D03*
D38*
X840613Y292100D03*
X851027Y292100D03*
D16*
X1070220Y361950D03*
X1053220Y361950D03*
X1180220Y381000D03*
X1197220Y381000D03*
X837320Y69850D03*
X854320Y69850D03*
X837320Y50800D03*
X854320Y50800D03*
X837320Y31750D03*
X854320Y31750D03*
D13*
X1214120Y249800D03*
X1214120Y232800D03*
D20*
X1233170Y90100D03*
X1233170Y113100D03*
X1234440Y172650D03*
X1234440Y195650D03*
X1207770Y280600D03*
X1207770Y303600D03*
X1207770Y318700D03*
X1207770Y341700D03*
X1195070Y229800D03*
X1195070Y252800D03*
X1233170Y252800D03*
X1233170Y229800D03*
D13*
X1252220Y110100D03*
X1252220Y93100D03*
X1226820Y300600D03*
X1226820Y283600D03*
X1226820Y338700D03*
X1226820Y321700D03*
X1252220Y192650D03*
X1252220Y175650D03*
D45*
X985520Y103200D03*
D46*
X985520Y303200D03*
D47*
X932770Y110700D03*
D48*
X940520Y99700D03*
X940520Y306700D03*
D47*
X1008270Y113200D03*
X932770Y115700D03*
X1008270Y118200D03*
X932770Y120700D03*
X1008270Y123200D03*
X932770Y125700D03*
X1008270Y128200D03*
X932770Y130700D03*
X1008270Y133200D03*
X932770Y135700D03*
X1008270Y138200D03*
X932770Y140700D03*
X1008270Y143200D03*
X932770Y145700D03*
X1008270Y148200D03*
X932770Y150700D03*
X1008270Y153200D03*
X932770Y155700D03*
X1008270Y158200D03*
X932770Y160700D03*
X1008270Y163200D03*
X932770Y165700D03*
X1008270Y188200D03*
X932770Y190700D03*
X1008270Y193200D03*
X932770Y195700D03*
X1008270Y198200D03*
X932770Y200700D03*
X1008270Y203200D03*
X932770Y205700D03*
X1008270Y208200D03*
X932770Y210700D03*
X1008270Y213200D03*
X932770Y215700D03*
X1008270Y218200D03*
X932770Y220700D03*
X1008270Y223200D03*
X932770Y225700D03*
X1008270Y228200D03*
X932770Y230700D03*
X1008270Y233200D03*
X932770Y235700D03*
X1008270Y238200D03*
X932770Y240700D03*
X1008270Y243200D03*
X932770Y245700D03*
X1008270Y248200D03*
X932770Y250700D03*
X1008270Y253200D03*
X932770Y255700D03*
X1008270Y258200D03*
X932770Y260700D03*
X1008270Y263200D03*
X932770Y265700D03*
X1008270Y268200D03*
X932770Y270700D03*
X1008270Y273200D03*
X932770Y275700D03*
X1008270Y278200D03*
X932770Y280700D03*
X1008270Y283200D03*
X932770Y285700D03*
X1008270Y288200D03*
X932770Y290700D03*
X1008270Y293200D03*
X932770Y295700D03*
D28*
X960120Y571500D03*
X985520Y571500D03*
X960120Y546100D03*
X985520Y546100D03*
D38*
X1069213Y457200D03*
X1079627Y457200D03*
D13*
X934720Y364100D03*
X934720Y347100D03*
D10*
X60100Y683380D03*
X60100Y688380D03*
D11*
X60100Y658630D03*
X60100Y666380D03*
D10*
X60100Y673380D03*
X60100Y678380D03*
X60100Y698380D03*
X60100Y693380D03*
D11*
X60100Y723130D03*
X60100Y715380D03*
D10*
X60100Y708380D03*
X60100Y703380D03*
D12*
X49050Y719780D03*
X49050Y661980D03*
D13*
X76200Y724780D03*
X76200Y707780D03*
X76200Y656980D03*
X76200Y673980D03*
D14*
X91850Y677130D03*
X98350Y677130D03*
X104850Y677130D03*
X111350Y677130D03*
X111350Y704630D03*
X104850Y704630D03*
X98350Y704630D03*
X91850Y704630D03*
D15*
X101600Y690880D03*
D16*
X93100Y728980D03*
X110100Y728980D03*
D17*
X7620Y596900D03*
X665480Y1167130D03*
D18*
X647700Y1148080D03*
X25400Y1148080D03*
X647700Y614680D03*
X25400Y614680D03*
D16*
X46600Y906780D03*
X29600Y906780D03*
D19*
X107400Y836580D03*
D20*
X31750Y819080D03*
X31750Y842080D03*
D13*
X50800Y839080D03*
X50800Y822080D03*
D20*
X12700Y819080D03*
X12700Y842080D03*
D21*
X543500Y603330D03*
X599500Y603330D03*
D22*
X556500Y640080D03*
X566500Y640080D03*
X576500Y640080D03*
X586500Y640080D03*
D23*
X393700Y693166D03*
X393700Y703580D03*
X393700Y713994D03*
D16*
X402200Y678180D03*
X385200Y678180D03*
X402200Y728980D03*
X385200Y728980D03*
D24*
X146050Y612140D03*
X146050Y668020D03*
X184150Y612140D03*
X184150Y668020D03*
D16*
X93100Y744220D03*
X110100Y744220D03*
D25*
X34036Y792480D03*
X42164Y792480D03*
D26*
X23100Y767080D03*
X53100Y767080D03*
D27*
X102900Y767080D03*
X74900Y767080D03*
D13*
X156210Y733180D03*
X156210Y750180D03*
X133350Y750180D03*
X133350Y733180D03*
D25*
X101600Y601980D03*
X111760Y601980D03*
D28*
X93980Y601980D03*
X119380Y601980D03*
D29*
X158750Y779780D03*
X158750Y792480D03*
X158750Y805180D03*
X158750Y817880D03*
X158750Y767080D03*
X146050Y779780D03*
X146050Y792480D03*
X146050Y805180D03*
X146050Y817880D03*
X146050Y767080D03*
D24*
X209550Y612140D03*
X209550Y668020D03*
X247650Y612140D03*
X247650Y668020D03*
D28*
X190500Y1160780D03*
X165100Y1160780D03*
X139700Y1160780D03*
X114300Y1160780D03*
X88900Y1160780D03*
D30*
X161100Y981680D03*
X161100Y1038680D03*
D31*
X29600Y1054680D03*
X19600Y923180D03*
D32*
X58100Y969780D03*
X62100Y980780D03*
X58100Y991780D03*
X56100Y1002780D03*
X58100Y1013780D03*
X56100Y1024780D03*
X58100Y1035780D03*
X58100Y1046780D03*
D28*
X406400Y601980D03*
X381000Y601980D03*
X355600Y601980D03*
X330200Y601980D03*
X304800Y601980D03*
X279400Y601980D03*
X431800Y601980D03*
X457200Y601980D03*
X482600Y601980D03*
X508000Y601980D03*
D33*
X442000Y752280D03*
D13*
X127000Y699380D03*
X127000Y682380D03*
D34*
X140900Y690880D03*
X163900Y690880D03*
D35*
X391250Y980030D03*
X391250Y973530D03*
X391250Y967030D03*
X391250Y960530D03*
X370750Y960530D03*
X370750Y967030D03*
X370750Y973530D03*
X370750Y980030D03*
D16*
X309000Y989330D03*
X326000Y989330D03*
X309000Y970280D03*
X326000Y970280D03*
D36*
X282600Y1049980D03*
X301600Y1049980D03*
X282600Y1042980D03*
D37*
X301100Y1042980D03*
D38*
X96393Y1097280D03*
X106807Y1097280D03*
D16*
X55000Y1084580D03*
X72000Y1084580D03*
D39*
X68780Y1093790D02*
X68780Y1100770D01*
X75760Y1100770D01*
X75760Y1093790D01*
X68780Y1093790D01*
X68780Y1098590D02*
X75760Y1098590D01*
X51240Y1100770D02*
X51240Y1093790D01*
X51240Y1100770D02*
X58220Y1100770D01*
X58220Y1093790D01*
X51240Y1093790D01*
X51240Y1098590D02*
X58220Y1098590D01*
D16*
X300600Y1071880D03*
X283600Y1071880D03*
D40*
X584200Y1083780D03*
X584200Y1033780D03*
X584200Y983780D03*
D28*
X533400Y697230D03*
X558800Y709930D03*
X533400Y722630D03*
X558800Y735330D03*
X533400Y748030D03*
X558800Y760730D03*
D41*
X622300Y678180D03*
X622300Y779780D03*
D28*
X533400Y849630D03*
X558800Y862330D03*
X533400Y875030D03*
X558800Y887730D03*
X533400Y900430D03*
X558800Y913130D03*
D41*
X622300Y830580D03*
X622300Y932180D03*
D42*
X431734Y1059246D03*
D43*
X414394Y1069006D02*
X410894Y1069006D01*
X410894Y1062506D02*
X414394Y1062506D01*
X414394Y1056006D02*
X410894Y1056006D01*
X410894Y1049486D02*
X414394Y1049486D01*
X421984Y1041846D02*
X421984Y1038346D01*
X428484Y1038326D02*
X428484Y1041826D01*
X434984Y1041846D02*
X434984Y1038346D01*
X441484Y1038346D02*
X441484Y1041846D01*
X421984Y1076646D02*
X421984Y1080146D01*
X428484Y1080126D02*
X428484Y1076626D01*
X434984Y1076646D02*
X434984Y1080146D01*
X441484Y1080146D02*
X441484Y1076646D01*
X449124Y1068996D02*
X452624Y1068996D01*
X452624Y1062496D02*
X449124Y1062496D01*
X449124Y1055996D02*
X452624Y1055996D01*
X452624Y1049496D02*
X449124Y1049496D01*
D16*
X389500Y1071880D03*
X372500Y1071880D03*
X474100Y1084580D03*
X491100Y1084580D03*
X433950Y1103630D03*
X416950Y1103630D03*
X416950Y1120140D03*
X433950Y1120140D03*
X389500Y1046480D03*
X372500Y1046480D03*
D44*
X471950Y1148080D03*
X378950Y1148080D03*
D39*
X68780Y884870D02*
X68780Y877890D01*
X68780Y884870D02*
X75760Y884870D01*
X75760Y877890D01*
X68780Y877890D01*
X68780Y882690D02*
X75760Y882690D01*
X51240Y884870D02*
X51240Y877890D01*
X51240Y884870D02*
X58220Y884870D01*
X58220Y877890D01*
X51240Y877890D01*
X51240Y882690D02*
X58220Y882690D01*
D16*
X55000Y868680D03*
X72000Y868680D03*
D38*
X96393Y881380D03*
X106807Y881380D03*
D16*
X326000Y951230D03*
X309000Y951230D03*
X436000Y970280D03*
X453000Y970280D03*
X93100Y659130D03*
X110100Y659130D03*
X93100Y640080D03*
X110100Y640080D03*
X93100Y621030D03*
X110100Y621030D03*
D13*
X469900Y839080D03*
X469900Y822080D03*
D20*
X488950Y679380D03*
X488950Y702380D03*
X490220Y761930D03*
X490220Y784930D03*
X463550Y869880D03*
X463550Y892880D03*
X463550Y907980D03*
X463550Y930980D03*
X450850Y819080D03*
X450850Y842080D03*
X488950Y842080D03*
X488950Y819080D03*
D13*
X508000Y699380D03*
X508000Y682380D03*
X482600Y889880D03*
X482600Y872880D03*
X482600Y927980D03*
X482600Y910980D03*
X508000Y781930D03*
X508000Y764930D03*
D45*
X241300Y692480D03*
D46*
X241300Y892480D03*
D47*
X188550Y699980D03*
D48*
X196300Y688980D03*
X196300Y895980D03*
D47*
X264050Y702480D03*
X188550Y704980D03*
X264050Y707480D03*
X188550Y709980D03*
X264050Y712480D03*
X188550Y714980D03*
X264050Y717480D03*
X188550Y719980D03*
X264050Y722480D03*
X188550Y724980D03*
X264050Y727480D03*
X188550Y729980D03*
X264050Y732480D03*
X188550Y734980D03*
X264050Y737480D03*
X188550Y739980D03*
X264050Y742480D03*
X188550Y744980D03*
X264050Y747480D03*
X188550Y749980D03*
X264050Y752480D03*
X188550Y754980D03*
X264050Y777480D03*
X188550Y779980D03*
X264050Y782480D03*
X188550Y784980D03*
X264050Y787480D03*
X188550Y789980D03*
X264050Y792480D03*
X188550Y794980D03*
X264050Y797480D03*
X188550Y799980D03*
X264050Y802480D03*
X188550Y804980D03*
X264050Y807480D03*
X188550Y809980D03*
X264050Y812480D03*
X188550Y814980D03*
X264050Y817480D03*
X188550Y819980D03*
X264050Y822480D03*
X188550Y824980D03*
X264050Y827480D03*
X188550Y829980D03*
X264050Y832480D03*
X188550Y834980D03*
X264050Y837480D03*
X188550Y839980D03*
X264050Y842480D03*
X188550Y844980D03*
X264050Y847480D03*
X188550Y849980D03*
X264050Y852480D03*
X188550Y854980D03*
X264050Y857480D03*
X188550Y859980D03*
X264050Y862480D03*
X188550Y864980D03*
X264050Y867480D03*
X188550Y869980D03*
X264050Y872480D03*
X188550Y874980D03*
X264050Y877480D03*
X188550Y879980D03*
X264050Y882480D03*
X188550Y884980D03*
D28*
X215900Y1160780D03*
X241300Y1160780D03*
X215900Y1135380D03*
X241300Y1135380D03*
D38*
X324993Y1046480D03*
X335407Y1046480D03*
D13*
X190500Y953380D03*
X190500Y936380D03*
D10*
X804320Y683380D03*
X804320Y688380D03*
D11*
X804320Y658630D03*
X804320Y666380D03*
D10*
X804320Y673380D03*
X804320Y678380D03*
X804320Y698380D03*
X804320Y693380D03*
D11*
X804320Y723130D03*
X804320Y715380D03*
D10*
X804320Y708380D03*
X804320Y703380D03*
D12*
X793270Y719780D03*
X793270Y661980D03*
D13*
X820420Y724780D03*
X820420Y707780D03*
X820420Y656980D03*
X820420Y673980D03*
D14*
X836070Y677130D03*
X842570Y677130D03*
X849070Y677130D03*
X855570Y677130D03*
X855570Y704630D03*
X849070Y704630D03*
X842570Y704630D03*
X836070Y704630D03*
D15*
X845820Y690880D03*
D16*
X837320Y728980D03*
X854320Y728980D03*
D17*
X751840Y596900D03*
X1409700Y1167130D03*
D18*
X1391920Y1148080D03*
X769620Y1148080D03*
X1391920Y614680D03*
X769620Y614680D03*
D16*
X790820Y906780D03*
X773820Y906780D03*
D19*
X851620Y836580D03*
D20*
X775970Y819080D03*
X775970Y842080D03*
D13*
X795020Y839080D03*
X795020Y822080D03*
D20*
X756920Y819080D03*
X756920Y842080D03*
D21*
X1287720Y603330D03*
X1343720Y603330D03*
D22*
X1300720Y640080D03*
X1310720Y640080D03*
X1320720Y640080D03*
X1330720Y640080D03*
D23*
X1137920Y693166D03*
X1137920Y703580D03*
X1137920Y713994D03*
D16*
X1146420Y678180D03*
X1129420Y678180D03*
X1146420Y728980D03*
X1129420Y728980D03*
D24*
X890270Y612140D03*
X890270Y668020D03*
X928370Y612140D03*
X928370Y668020D03*
D16*
X837320Y744220D03*
X854320Y744220D03*
D25*
X778256Y792480D03*
X786384Y792480D03*
D26*
X767320Y767080D03*
X797320Y767080D03*
D27*
X847120Y767080D03*
X819120Y767080D03*
D13*
X900430Y733180D03*
X900430Y750180D03*
X877570Y750180D03*
X877570Y733180D03*
D25*
X845820Y601980D03*
X855980Y601980D03*
D28*
X838200Y601980D03*
X863600Y601980D03*
D29*
X902970Y779780D03*
X902970Y792480D03*
X902970Y805180D03*
X902970Y817880D03*
X902970Y767080D03*
X890270Y779780D03*
X890270Y792480D03*
X890270Y805180D03*
X890270Y817880D03*
X890270Y767080D03*
D24*
X953770Y612140D03*
X953770Y668020D03*
X991870Y612140D03*
X991870Y668020D03*
D28*
X934720Y1160780D03*
X909320Y1160780D03*
X883920Y1160780D03*
X858520Y1160780D03*
X833120Y1160780D03*
D30*
X905320Y981680D03*
X905320Y1038680D03*
D31*
X773820Y1054680D03*
X763820Y923180D03*
D32*
X802320Y969780D03*
X806320Y980780D03*
X802320Y991780D03*
X800320Y1002780D03*
X802320Y1013780D03*
X800320Y1024780D03*
X802320Y1035780D03*
X802320Y1046780D03*
D28*
X1150620Y601980D03*
X1125220Y601980D03*
X1099820Y601980D03*
X1074420Y601980D03*
X1049020Y601980D03*
X1023620Y601980D03*
X1176020Y601980D03*
X1201420Y601980D03*
X1226820Y601980D03*
X1252220Y601980D03*
D33*
X1186220Y752280D03*
D13*
X871220Y699380D03*
X871220Y682380D03*
D34*
X885120Y690880D03*
X908120Y690880D03*
D35*
X1135470Y980030D03*
X1135470Y973530D03*
X1135470Y967030D03*
X1135470Y960530D03*
X1114970Y960530D03*
X1114970Y967030D03*
X1114970Y973530D03*
X1114970Y980030D03*
D16*
X1053220Y989330D03*
X1070220Y989330D03*
X1053220Y970280D03*
X1070220Y970280D03*
D36*
X1026820Y1049980D03*
X1045820Y1049980D03*
X1026820Y1042980D03*
D37*
X1045320Y1042980D03*
D38*
X840613Y1097280D03*
X851027Y1097280D03*
D16*
X799220Y1084580D03*
X816220Y1084580D03*
D39*
X813000Y1093790D02*
X813000Y1100770D01*
X819980Y1100770D01*
X819980Y1093790D01*
X813000Y1093790D01*
X813000Y1098590D02*
X819980Y1098590D01*
X795460Y1100770D02*
X795460Y1093790D01*
X795460Y1100770D02*
X802440Y1100770D01*
X802440Y1093790D01*
X795460Y1093790D01*
X795460Y1098590D02*
X802440Y1098590D01*
D16*
X1044820Y1071880D03*
X1027820Y1071880D03*
D40*
X1328420Y1083780D03*
X1328420Y1033780D03*
X1328420Y983780D03*
D28*
X1277620Y697230D03*
X1303020Y709930D03*
X1277620Y722630D03*
X1303020Y735330D03*
X1277620Y748030D03*
X1303020Y760730D03*
D41*
X1366520Y678180D03*
X1366520Y779780D03*
D28*
X1277620Y849630D03*
X1303020Y862330D03*
X1277620Y875030D03*
X1303020Y887730D03*
X1277620Y900430D03*
X1303020Y913130D03*
D41*
X1366520Y830580D03*
X1366520Y932180D03*
D42*
X1175954Y1059246D03*
D43*
X1158614Y1069006D02*
X1155114Y1069006D01*
X1155114Y1062506D02*
X1158614Y1062506D01*
X1158614Y1056006D02*
X1155114Y1056006D01*
X1155114Y1049486D02*
X1158614Y1049486D01*
X1166204Y1041846D02*
X1166204Y1038346D01*
X1172704Y1038326D02*
X1172704Y1041826D01*
X1179204Y1041846D02*
X1179204Y1038346D01*
X1185704Y1038346D02*
X1185704Y1041846D01*
X1166204Y1076646D02*
X1166204Y1080146D01*
X1172704Y1080126D02*
X1172704Y1076626D01*
X1179204Y1076646D02*
X1179204Y1080146D01*
X1185704Y1080146D02*
X1185704Y1076646D01*
X1193344Y1068996D02*
X1196844Y1068996D01*
X1196844Y1062496D02*
X1193344Y1062496D01*
X1193344Y1055996D02*
X1196844Y1055996D01*
X1196844Y1049496D02*
X1193344Y1049496D01*
D16*
X1133720Y1071880D03*
X1116720Y1071880D03*
X1218320Y1084580D03*
X1235320Y1084580D03*
X1178170Y1103630D03*
X1161170Y1103630D03*
X1161170Y1120140D03*
X1178170Y1120140D03*
X1133720Y1046480D03*
X1116720Y1046480D03*
D44*
X1216170Y1148080D03*
X1123170Y1148080D03*
D39*
X813000Y884870D02*
X813000Y877890D01*
X813000Y884870D02*
X819980Y884870D01*
X819980Y877890D01*
X813000Y877890D01*
X813000Y882690D02*
X819980Y882690D01*
X795460Y884870D02*
X795460Y877890D01*
X795460Y884870D02*
X802440Y884870D01*
X802440Y877890D01*
X795460Y877890D01*
X795460Y882690D02*
X802440Y882690D01*
D16*
X799220Y868680D03*
X816220Y868680D03*
D38*
X840613Y881380D03*
X851027Y881380D03*
D16*
X1070220Y951230D03*
X1053220Y951230D03*
X1180220Y970280D03*
X1197220Y970280D03*
X837320Y659130D03*
X854320Y659130D03*
X837320Y640080D03*
X854320Y640080D03*
X837320Y621030D03*
X854320Y621030D03*
D13*
X1214120Y839080D03*
X1214120Y822080D03*
D20*
X1233170Y679380D03*
X1233170Y702380D03*
X1234440Y761930D03*
X1234440Y784930D03*
X1207770Y869880D03*
X1207770Y892880D03*
X1207770Y907980D03*
X1207770Y930980D03*
X1195070Y819080D03*
X1195070Y842080D03*
X1233170Y842080D03*
X1233170Y819080D03*
D13*
X1252220Y699380D03*
X1252220Y682380D03*
X1226820Y889880D03*
X1226820Y872880D03*
X1226820Y927980D03*
X1226820Y910980D03*
X1252220Y781930D03*
X1252220Y764930D03*
D45*
X985520Y692480D03*
D46*
X985520Y892480D03*
D47*
X932770Y699980D03*
D48*
X940520Y688980D03*
X940520Y895980D03*
D47*
X1008270Y702480D03*
X932770Y704980D03*
X1008270Y707480D03*
X932770Y709980D03*
X1008270Y712480D03*
X932770Y714980D03*
X1008270Y717480D03*
X932770Y719980D03*
X1008270Y722480D03*
X932770Y724980D03*
X1008270Y727480D03*
X932770Y729980D03*
X1008270Y732480D03*
X932770Y734980D03*
X1008270Y737480D03*
X932770Y739980D03*
X1008270Y742480D03*
X932770Y744980D03*
X1008270Y747480D03*
X932770Y749980D03*
X1008270Y752480D03*
X932770Y754980D03*
X1008270Y777480D03*
X932770Y779980D03*
X1008270Y782480D03*
X932770Y784980D03*
X1008270Y787480D03*
X932770Y789980D03*
X1008270Y792480D03*
X932770Y794980D03*
X1008270Y797480D03*
X932770Y799980D03*
X1008270Y802480D03*
X932770Y804980D03*
X1008270Y807480D03*
X932770Y809980D03*
X1008270Y812480D03*
X932770Y814980D03*
X1008270Y817480D03*
X932770Y819980D03*
X1008270Y822480D03*
X932770Y824980D03*
X1008270Y827480D03*
X932770Y829980D03*
X1008270Y832480D03*
X932770Y834980D03*
X1008270Y837480D03*
X932770Y839980D03*
X1008270Y842480D03*
X932770Y844980D03*
X1008270Y847480D03*
X932770Y849980D03*
X1008270Y852480D03*
X932770Y854980D03*
X1008270Y857480D03*
X932770Y859980D03*
X1008270Y862480D03*
X932770Y864980D03*
X1008270Y867480D03*
X932770Y869980D03*
X1008270Y872480D03*
X932770Y874980D03*
X1008270Y877480D03*
X932770Y879980D03*
X1008270Y882480D03*
X932770Y884980D03*
D28*
X960120Y1160780D03*
X985520Y1160780D03*
X960120Y1135380D03*
X985520Y1135380D03*
D38*
X1069213Y1046480D03*
X1079627Y1046480D03*
D13*
X934720Y953380D03*
X934720Y936380D03*
D29*
X134620Y1194435D03*
X1480185Y1194435D03*
D49*
X125565Y-20955D02*
X125568Y-20733D01*
X125576Y-20511D01*
X125590Y-20289D01*
X125609Y-20067D01*
X125633Y-19847D01*
X125663Y-19626D01*
X125698Y-19407D01*
X125739Y-19188D01*
X125785Y-18971D01*
X125836Y-18755D01*
X125893Y-18540D01*
X125955Y-18326D01*
X126022Y-18115D01*
X126094Y-17904D01*
X126172Y-17696D01*
X126254Y-17490D01*
X126342Y-17286D01*
X126434Y-17083D01*
X126532Y-16884D01*
X126634Y-16687D01*
X126741Y-16492D01*
X126853Y-16300D01*
X126970Y-16111D01*
X127091Y-15924D01*
X127217Y-15741D01*
X127347Y-15561D01*
X127482Y-15384D01*
X127620Y-15211D01*
X127763Y-15041D01*
X127911Y-14874D01*
X128062Y-14711D01*
X128217Y-14552D01*
X128376Y-14397D01*
X128539Y-14246D01*
X128706Y-14098D01*
X128876Y-13955D01*
X129049Y-13817D01*
X129226Y-13682D01*
X129406Y-13552D01*
X129589Y-13426D01*
X129776Y-13305D01*
X129965Y-13188D01*
X130157Y-13076D01*
X130352Y-12969D01*
X130549Y-12867D01*
X130748Y-12769D01*
X130951Y-12677D01*
X131155Y-12589D01*
X131361Y-12507D01*
X131569Y-12429D01*
X131780Y-12357D01*
X131991Y-12290D01*
X132205Y-12228D01*
X132420Y-12171D01*
X132636Y-12120D01*
X132853Y-12074D01*
X133072Y-12033D01*
X133291Y-11998D01*
X133512Y-11968D01*
X133732Y-11944D01*
X133954Y-11925D01*
X134176Y-11911D01*
X134398Y-11903D01*
X134620Y-11900D01*
X134842Y-11903D01*
X135064Y-11911D01*
X135286Y-11925D01*
X135508Y-11944D01*
X135728Y-11968D01*
X135949Y-11998D01*
X136168Y-12033D01*
X136387Y-12074D01*
X136604Y-12120D01*
X136820Y-12171D01*
X137035Y-12228D01*
X137249Y-12290D01*
X137460Y-12357D01*
X137671Y-12429D01*
X137879Y-12507D01*
X138085Y-12589D01*
X138289Y-12677D01*
X138492Y-12769D01*
X138691Y-12867D01*
X138888Y-12969D01*
X139083Y-13076D01*
X139275Y-13188D01*
X139464Y-13305D01*
X139651Y-13426D01*
X139834Y-13552D01*
X140014Y-13682D01*
X140191Y-13817D01*
X140364Y-13955D01*
X140534Y-14098D01*
X140701Y-14246D01*
X140864Y-14397D01*
X141023Y-14552D01*
X141178Y-14711D01*
X141329Y-14874D01*
X141477Y-15041D01*
X141620Y-15211D01*
X141758Y-15384D01*
X141893Y-15561D01*
X142023Y-15741D01*
X142149Y-15924D01*
X142270Y-16111D01*
X142387Y-16300D01*
X142499Y-16492D01*
X142606Y-16687D01*
X142708Y-16884D01*
X142806Y-17083D01*
X142898Y-17286D01*
X142986Y-17490D01*
X143068Y-17696D01*
X143146Y-17904D01*
X143218Y-18115D01*
X143285Y-18326D01*
X143347Y-18540D01*
X143404Y-18755D01*
X143455Y-18971D01*
X143501Y-19188D01*
X143542Y-19407D01*
X143577Y-19626D01*
X143607Y-19847D01*
X143631Y-20067D01*
X143650Y-20289D01*
X143664Y-20511D01*
X143672Y-20733D01*
X143675Y-20955D01*
X143672Y-21177D01*
X143664Y-21399D01*
X143650Y-21621D01*
X143631Y-21843D01*
X143607Y-22063D01*
X143577Y-22284D01*
X143542Y-22503D01*
X143501Y-22722D01*
X143455Y-22939D01*
X143404Y-23155D01*
X143347Y-23370D01*
X143285Y-23584D01*
X143218Y-23795D01*
X143146Y-24006D01*
X143068Y-24214D01*
X142986Y-24420D01*
X142898Y-24624D01*
X142806Y-24827D01*
X142708Y-25026D01*
X142606Y-25223D01*
X142499Y-25418D01*
X142387Y-25610D01*
X142270Y-25799D01*
X142149Y-25986D01*
X142023Y-26169D01*
X141893Y-26349D01*
X141758Y-26526D01*
X141620Y-26699D01*
X141477Y-26869D01*
X141329Y-27036D01*
X141178Y-27199D01*
X141023Y-27358D01*
X140864Y-27513D01*
X140701Y-27664D01*
X140534Y-27812D01*
X140364Y-27955D01*
X140191Y-28093D01*
X140014Y-28228D01*
X139834Y-28358D01*
X139651Y-28484D01*
X139464Y-28605D01*
X139275Y-28722D01*
X139083Y-28834D01*
X138888Y-28941D01*
X138691Y-29043D01*
X138492Y-29141D01*
X138289Y-29233D01*
X138085Y-29321D01*
X137879Y-29403D01*
X137671Y-29481D01*
X137460Y-29553D01*
X137249Y-29620D01*
X137035Y-29682D01*
X136820Y-29739D01*
X136604Y-29790D01*
X136387Y-29836D01*
X136168Y-29877D01*
X135949Y-29912D01*
X135728Y-29942D01*
X135508Y-29966D01*
X135286Y-29985D01*
X135064Y-29999D01*
X134842Y-30007D01*
X134620Y-30010D01*
X134398Y-30007D01*
X134176Y-29999D01*
X133954Y-29985D01*
X133732Y-29966D01*
X133512Y-29942D01*
X133291Y-29912D01*
X133072Y-29877D01*
X132853Y-29836D01*
X132636Y-29790D01*
X132420Y-29739D01*
X132205Y-29682D01*
X131991Y-29620D01*
X131780Y-29553D01*
X131569Y-29481D01*
X131361Y-29403D01*
X131155Y-29321D01*
X130951Y-29233D01*
X130748Y-29141D01*
X130549Y-29043D01*
X130352Y-28941D01*
X130157Y-28834D01*
X129965Y-28722D01*
X129776Y-28605D01*
X129589Y-28484D01*
X129406Y-28358D01*
X129226Y-28228D01*
X129049Y-28093D01*
X128876Y-27955D01*
X128706Y-27812D01*
X128539Y-27664D01*
X128376Y-27513D01*
X128217Y-27358D01*
X128062Y-27199D01*
X127911Y-27036D01*
X127763Y-26869D01*
X127620Y-26699D01*
X127482Y-26526D01*
X127347Y-26349D01*
X127217Y-26169D01*
X127091Y-25986D01*
X126970Y-25799D01*
X126853Y-25610D01*
X126741Y-25418D01*
X126634Y-25223D01*
X126532Y-25026D01*
X126434Y-24827D01*
X126342Y-24624D01*
X126254Y-24420D01*
X126172Y-24214D01*
X126094Y-24006D01*
X126022Y-23795D01*
X125955Y-23584D01*
X125893Y-23370D01*
X125836Y-23155D01*
X125785Y-22939D01*
X125739Y-22722D01*
X125698Y-22503D01*
X125663Y-22284D01*
X125633Y-22063D01*
X125609Y-21843D01*
X125590Y-21621D01*
X125576Y-21399D01*
X125568Y-21177D01*
X125565Y-20955D01*
D50*
X134620Y-20955D03*
M02*
