M48
;GenerationSoftware,Autodesk,EAGLE,9.4.2*%
;CreationDate,2020-08-25T19:23:04Z*%
FMAT,2
ICI,OFF
METRIC,TZ,000.000
T12C0.305
T11C0.381
T10C0.400
T9C0.508
T8C0.650
T7C1.016
T6C1.100
T5C1.500
T4C1.600
T3C3.251
T2C3.302
T1C3.800
%
G90
M71
T1
X44200Y75228
X118622Y75228
X118622Y16300
X44200Y16300
T2
X2540Y2540
X76962Y55880
X76962Y2540
X76962Y61468
X139192Y2540
X139192Y55880
X139192Y61468
X139192Y114808
X76962Y114808
X2540Y61468
X64770Y61468
X2540Y114808
X64770Y114808
X64770Y55880
X2540Y55880
X64770Y2540
T3
X136652Y77978
X136652Y83058
X136652Y93218
X136652Y67818
X62230Y8890
X62230Y19050
X62230Y24130
X62230Y34290
X62230Y67818
X136652Y8890
X136652Y19050
X136652Y24130
X136652Y34290
X62230Y77978
X62230Y83058
X62230Y93218
T4
X24130Y30320
X24130Y89248
X98552Y30320
X98552Y89248
T5
X132842Y98378
X132842Y103378
X132842Y108378
X58420Y39450
X58420Y98378
X132842Y44450
X132842Y39450
X58420Y103378
X132842Y49450
X58420Y108378
X58420Y49450
X58420Y44450
T6
X24130Y10320
X98552Y10320
X24130Y69248
X98552Y69248
T7
X40640Y60198
X8890Y116078
X11430Y116078
X13970Y116078
X16510Y116078
X19050Y116078
X11938Y60198
X9398Y60198
X98552Y54610
X96012Y54610
X98552Y57150
X96012Y57150
X130302Y32385
X127762Y31115
X130302Y29845
X127762Y28575
X130302Y27305
X127762Y26035
X130302Y17145
X127762Y15875
X130302Y14605
X127762Y13335
X130302Y12065
X127762Y10795
X125222Y1270
X122682Y1270
X120142Y1270
X117602Y1270
X102362Y1270
X104902Y1270
X98552Y113538
X107442Y1270
X109982Y1270
X112522Y1270
X115062Y1270
X83312Y57150
X85852Y57150
X88392Y57150
X90932Y57150
X93472Y57150
X86360Y1270
X83820Y1270
X24130Y116078
X21590Y54610
X24130Y57150
X21590Y57150
X55880Y32385
X53340Y31115
X55880Y29845
X53340Y28575
X55880Y27305
X53340Y26035
X55880Y17145
X53340Y15875
X55880Y14605
X53340Y13335
X55880Y12065
X53340Y10795
X127762Y69723
X125222Y60198
X122682Y60198
X120142Y60198
X50800Y1270
X48260Y1270
X45720Y1270
X43180Y1270
X27940Y1270
X30480Y1270
X33020Y1270
X35560Y1270
X38100Y1270
X40640Y1270
X8890Y57150
X117602Y60198
X102362Y60198
X104902Y60198
X107442Y60198
X109982Y60198
X112522Y60198
X115062Y60198
X83312Y116078
X85852Y116078
X88392Y116078
X90932Y116078
X93472Y116078
X86360Y60198
X83820Y60198
X24130Y113538
X21590Y113538
X21590Y116078
X55880Y91313
X53340Y90043
X55880Y88773
X53340Y87503
X55880Y86233
X53340Y84963
X55880Y76073
X53340Y74803
X55880Y73533
X53340Y72263
X55880Y70993
X53340Y69723
X50800Y60198
X48260Y60198
X45720Y60198
X43180Y60198
X27940Y60198
X24130Y54610
X11938Y1270
X30480Y60198
X33020Y60198
X35560Y60198
X38100Y60198
X11430Y57150
X13970Y57150
X16510Y57150
X19050Y57150
X9398Y1270
X130302Y70993
X127762Y72263
X130302Y73533
X127762Y74803
X130302Y76073
X127762Y84963
X130302Y86233
X127762Y87503
X130302Y88773
X127762Y90043
X130302Y91313
X96012Y116078
X98552Y116078
X96012Y113538
T8
X4905Y7270
X79327Y71978
X79327Y66198
X4905Y71978
X4905Y66198
X79327Y13050
X79327Y7270
X4905Y13050
T9
X90297Y22860
X90297Y17780
X89027Y19050
X89027Y20320
X89027Y21590
X89027Y22860
X89027Y17780
X15875Y77978
X15875Y79248
X15875Y80518
X15875Y81788
X15875Y76708
X14605Y77978
X14605Y79248
X14605Y80518
X14605Y81788
X90297Y77978
X90297Y79248
X90297Y80518
X90297Y81788
X90297Y76708
X89027Y77978
X89027Y79248
X89027Y80518
X89027Y81788
X89027Y76708
X14605Y21590
X15875Y19050
X15875Y20320
X15875Y21590
X15875Y22860
X15875Y17780
X14605Y19050
X14605Y20320
X14605Y76708
X14605Y22860
X14605Y17780
X90297Y19050
X90297Y20320
X90297Y21590
T10
X1255Y5842
X1255Y14478
X5435Y73406
X1255Y73406
X1255Y64770
X5435Y64770
X75677Y73406
X75677Y64770
X79857Y64770
X79857Y73406
X75677Y14478
X75677Y5842
X79857Y5842
X79857Y14478
X5435Y14478
X5435Y5842
T11
X27686Y34798
X21730Y71120
X39624Y90792
X27927Y27318
X116319Y25159
X114554Y44577
X29210Y26670
X86741Y50800
X84963Y41402
X106299Y11320
X106299Y29972
X21730Y12192
X22556Y11099
X12065Y28067
X9398Y22098
X117615Y28448
X117615Y31750
X101473Y40132
X120142Y11811
X118491Y22225
X33782Y91313
X31242Y104267
X22556Y70027
X37084Y31483
X30480Y31750
X27178Y45339
X12065Y86995
X117615Y25273
X115522Y20172
X125984Y49403
X39624Y31864
X33782Y32385
X31242Y45339
X102222Y87269
X102108Y93726
X102349Y86246
X103632Y85598
X96152Y71120
X96978Y70027
X86487Y86995
X83820Y81026
X111506Y90411
X125984Y20320
X9398Y81026
X43193Y84201
X41100Y79100
X102222Y28341
X102108Y34798
X27927Y86246
X12319Y50800
X10541Y41402
X31877Y11320
X43193Y28448
X43193Y31750
X27051Y40132
X45720Y11811
X44069Y22225
X51562Y108331
X102349Y27318
X34290Y97028
X22225Y67310
X12319Y109728
X103632Y26670
X10541Y100330
X108712Y38100
X96647Y8382
X31877Y70248
X31877Y88900
X43193Y87376
X96152Y12192
X96978Y11099
X86487Y28067
X83820Y22098
X43193Y90678
X27051Y99060
X45720Y70739
X44069Y81153
X116319Y84087
X114554Y103505
X117615Y84201
X31877Y29972
X51562Y79248
X34290Y38100
X104902Y90678
X101600Y104267
X114046Y90792
X108204Y91313
X105664Y104267
X86741Y109728
X84963Y100330
X106299Y70248
X115522Y79100
X117615Y87376
X22225Y8382
X41897Y84087
X29210Y85598
X40132Y103505
X111506Y31483
X104902Y31750
X101600Y45339
X102743Y25654
X37084Y90411
X30480Y90678
X27178Y104267
X41897Y25159
X40132Y44577
X102743Y84582
X114046Y31864
X108204Y32385
X106299Y88900
X43193Y25273
X41100Y20172
X28321Y25654
X117615Y90678
X101473Y99060
X120142Y70739
X118491Y81153
X108712Y97028
X96647Y67310
X125984Y108331
X125984Y79248
X27800Y87269
X28321Y84582
X51562Y49403
X51562Y20320
X27686Y93726
X27800Y28341
X105664Y45339
T12
X79159Y69088
X90170Y70231
X118618Y71247
X114554Y73914
X113990Y93543
X15240Y10160
X24130Y20320
X20320Y11430
X122682Y66929
X111506Y72638
X111598Y66937
X113334Y93014
X17526Y10541
X7620Y5080
X7366Y14986
X97663Y71958
X102387Y62992
X98679Y72009
X103022Y62306
X91059Y72898
X91567Y67564
X92075Y68453
X95250Y71374
X14478Y14097
X12192Y17780
X12065Y8001
X15875Y2286
X104394Y75819
X103632Y75209
X96647Y77724
X96012Y81534
X22225Y2159
X104139Y97917
X91821Y99212
X104089Y100533
X7620Y10160
X88646Y103632
X102997Y101727
X6604Y30607
X12192Y24765
X91694Y71628
X97663Y70612
X88773Y71501
X1905Y34925
X2921Y44958
X5080Y52705
X16129Y46609
X110821Y72138
X110871Y89027
X114681Y81280
X117311Y102362
X26670Y48260
X35560Y48260
X95656Y82364
X94742Y112268
X84963Y71501
X49149Y48260
X49530Y33909
X48895Y21844
X47879Y19050
X13208Y31750
X27432Y29972
X27051Y38100
X28829Y43688
X4737Y11076
X15331Y12052
X4737Y10160
X15748Y11303
X44196Y12319
X40132Y14986
X39568Y34615
X48260Y8001
X37084Y13710
X37176Y8009
X38912Y34086
X23241Y13030
X27965Y4064
X24257Y13081
X28600Y3378
X16637Y13970
X17145Y8636
X17653Y9525
X20828Y12446
X29972Y16891
X29210Y16281
X22225Y18796
X21590Y22606
X29717Y38989
X29667Y41605
X14224Y44704
X28575Y42799
X17272Y12700
X23241Y11684
X14351Y12573
X36399Y13210
X36449Y30099
X40259Y22352
X42889Y43434
X21234Y23436
X20320Y53340
X10541Y12573
X93472Y42037
X103607Y39751
X117920Y44133
X117920Y41707
X112522Y39370
X116586Y48006
X117602Y46990
X116586Y46609
X118618Y48006
X118618Y45974
X86741Y13970
X89662Y10160
X98552Y20320
X94742Y11430
X91948Y10541
X82042Y5080
X81788Y14986
X88900Y14097
X86614Y17780
X86487Y8001
X90297Y2286
X96647Y2159
X82042Y10160
X81026Y30607
X86614Y24765
X76327Y34925
X77343Y44958
X79502Y52705
X90551Y46609
X101092Y48260
X109982Y48260
X123571Y48260
X123952Y33909
X123317Y21844
X122301Y19050
X87630Y31750
X101854Y29972
X101473Y38100
X103251Y43688
X79159Y11076
X89753Y12052
X79159Y10160
X90170Y11303
X118618Y12319
X114554Y14986
X113990Y34615
X122682Y8001
X111506Y13710
X111598Y8009
X113334Y34086
X97663Y13030
X102387Y4064
X98679Y13081
X103022Y3378
X91059Y13970
X91567Y8636
X92075Y9525
X95250Y12446
X104394Y16891
X103632Y16281
X96647Y18796
X96012Y22606
X104139Y38989
X91821Y40284
X104089Y41605
X88646Y44704
X102997Y42799
X91694Y12700
X97663Y11684
X88773Y12573
X110821Y13210
X110871Y30099
X114681Y22352
X117311Y43434
X95656Y23436
X94742Y53340
X84963Y12573
X19050Y100965
X29185Y98679
X43498Y103061
X43498Y100635
X38100Y98298
X42164Y106934
X43180Y105918
X42164Y105537
X44196Y106934
X44196Y104902
X12319Y72898
X15240Y69088
X24130Y79248
X20320Y70358
X17526Y69469
X7620Y64008
X7366Y73914
X14478Y73025
X12192Y76708
X12065Y66929
X15875Y61214
X22225Y61087
X7620Y69088
X6604Y89535
X12192Y83693
X1905Y93853
X2921Y103886
X5080Y111633
X16129Y105537
X26670Y107188
X35560Y107188
X49149Y107188
X49530Y92837
X48895Y80772
X47879Y77978
X13208Y90678
X27432Y88900
X27051Y97028
X28829Y102616
X4737Y70004
X15331Y70980
X4737Y69088
X15748Y70231
X81788Y73914
X44196Y71247
X40132Y73914
X39568Y93543
X48260Y66929
X37084Y72638
X37176Y66937
X38912Y93014
X23241Y71958
X27965Y62992
X24257Y72009
X28600Y62306
X16637Y72898
X17145Y67564
X17653Y68453
X20828Y71374
X29972Y75819
X29210Y75209
X22225Y77724
X21590Y81534
X29717Y97917
X17399Y99212
X29667Y100533
X14224Y103632
X28575Y101727
X17272Y71628
X23241Y70612
X14351Y71501
X36399Y72138
X36449Y89027
X40259Y81280
X42889Y102362
X21234Y82364
X20320Y112268
X10541Y71501
X93472Y100965
X103607Y98679
X117920Y103061
X117920Y100635
X112522Y98298
X116586Y106934
X117602Y105918
X116586Y105537
X118618Y106934
X118618Y104902
X86741Y72898
X89662Y69088
X98552Y79248
X94742Y70358
X91948Y69469
X82042Y64008
X17399Y40284
X88900Y73025
X19050Y42037
X29185Y39751
X86614Y76708
X86487Y66929
X90297Y61214
X96647Y61087
X82042Y69088
X81026Y89535
X86614Y83693
X76327Y93853
X77343Y103886
X79502Y111633
X90551Y105537
X101092Y107188
X109982Y107188
X123571Y107188
X123952Y92837
X123317Y80772
X122301Y77978
X87630Y90678
X101854Y88900
X101473Y97028
X103251Y102616
X43498Y44133
X43498Y41707
X38100Y39370
X42164Y48006
X43180Y46990
X42164Y46609
X44196Y48006
X44196Y45974
X12319Y13970
X79159Y70004
X89753Y70980
M30